<?xml version="1.0" encoding="UTF-8"?>
<svg xmlns="http://www.w3.org/2000/svg" version="1.1" viewBox="0 0 3890.9 3107.5">
  <defs>
    <style>
      .cls-1, .cls-2, .cls-3, .cls-4, .cls-5 {
        display: none;
      }

      .cls-1, .cls-6 {
        isolation: isolate;
      }

      .cls-2, .cls-7 {
        fill: #fdb21b;
      }

      .cls-8, .cls-3 {
        fill: #fff;
      }

      .cls-9 {
        fill: #dbdbdb;
      }

      .cls-6 {
        font-family: MyriadPro-Bold, 'Myriad Pro';
        font-size: 34.9px;
        font-weight: 700;
      }

      .cls-10, .cls-4 {
        fill: #335230;
      }
    </style>
  </defs>
  <!-- Generator: Adobe Illustrator 28.6.0, SVG Export Plug-In . SVG Version: 1.2.0 Build 709)  -->
  <g>
    <g id="Layer_1">
      <g class="cls-5">
        <g id="Layer_1-2" data-name="Layer_1">
          <g>
            <g class="cls-5">
              <path class="cls-7" d="M1796.8,24.4H513.5v486.2c7.6,9.5,13.3,20,15.3,29.6,1.9,14.3,4.8,28.6,6.7,42.9,3.8,0,6.7,1.9,9.5,2.9,7.6,2.9,14.3,5.7,21,8.6V102.6c0-7.6,0-16.2,1.9-23.8h1171.7v607.3c2.9,0,5.7,1.9,8.6,3.8,9.5-20,25.7-34.3,44.8-42V42.5c0-5.7-1.9-12.4,1.9-18.1h1.9Z"/>
              <path class="cls-7" d="M1741.5,1742.5v-103.9h53.4v157.3H515.4v-268.9h51.5c2.9,3.8,1.9,9.5,1.9,14.3v184c0,14.3,3.8,17.2,17.2,17.2h1155.5Z"/>
            </g>
            <g class="cls-5">
              <g>
                <polygon class="cls-9" points="2075.2 1487.9 2066.6 1487.9 1865.4 1487.9 1865.4 1536.5 1881.6 1536.5 1881.6 1504.1 2066.6 1504.1 2066.6 1559.4 1856.9 1559.4 1856.9 1576.6 2066.6 1576.6 2066.6 1631.9 1874 1631.9 1874 1590.9 1856.9 1590.9 1856.9 1649 2083.8 1649 2083.8 1487.9 2075.2 1487.9"/>
                <path class="cls-10" d="M2084.7,1650h-229.8v-60.1h19.1v41h190.7v-52.4h-209.8v-19.1h209.8v-52.4h-182.1v32.4h-19.1v-52.4h221.2v164-1ZM1858.8,1647.1h224.1v-158.3h-215.5v46.7h14.3v-32.4h187.8v58.2h-209.8v14.3h209.8v58.2h-196.4v-41h-14.3v55.3-1Z"/>
              </g>
              <g>
                <circle class="cls-9" cx="1970.3" cy="1531.8" r="10.5"/>
                <path class="cls-10" d="M1970.3,1544.2c-6.7,0-12.4-5.7-12.4-12.4s5.7-12.4,12.4-12.4,12.4,5.7,12.4,12.4-5.7,12.4-12.4,12.4ZM1970.3,1522.2c-5.7,0-9.5,3.8-9.5,9.5s3.8,9.5,9.5,9.5,9.5-3.8,9.5-9.5-3.8-9.5-9.5-9.5Z"/>
              </g>
              <g>
                <circle class="cls-9" cx="1970.3" cy="1599.5" r="10.5"/>
                <path class="cls-10" d="M1970.3,1611.8c-6.7,0-12.4-5.7-12.4-12.4s5.7-12.4,12.4-12.4,12.4,5.7,12.4,12.4-5.7,12.4-12.4,12.4ZM1970.3,1589.9c-5.7,0-9.5,3.8-9.5,9.5s3.8,9.5,9.5,9.5,9.5-3.8,9.5-9.5-3.8-9.5-9.5-9.5Z"/>
              </g>
              <g>
                <polygon class="cls-9" points="2005.6 1469.8 1974.1 1469.8 1974.1 1386.8 1966.5 1386.8 1966.5 1469.8 1935 1469.8 1935 1482.2 2005.6 1482.2 2005.6 1469.8"/>
                <path class="cls-10" d="M2007.5,1484.1h-73.4v-15.3h31.5v-82.9h9.5v82.9h31.5v15.3h1ZM1936,1481.2h67.7v-9.5h-31.5v-82.9h-3.8v82.9h-31.5v9.5h-1Z"/>
              </g>
            </g>
            <g class="cls-5">
              <rect class="cls-8" x="-105" y="-99.7" width="3916.8" height="3139.2"/>
              <path class="cls-7" d="M1091.2,1838.6h-38.8c0-49.3,2.6-128.4,2.6-179v-66.2c5.2-116.8,71.7-212.8,162.6-212.8s164.4,102.5,164.4,212.8v245.1h-53.2l-1.1-118.7-221.4,3.1c0,38.9-.6,83.1-3.2,115.6h-11.9ZM1109.6,1673.3l218.2-1.1v-79.4c0-88.2-38.1-159.2-106.9-159.2s-109.3,63.6-114.5,158.3v85.9l3.2-4.4Z"/>
              <path class="cls-2" d="M916.2,1807.1h-37c0-45.4,2.4-109.9,2.4-156.5v-60.9c4.8-107.5,66.9-184,150.6-184s150.6,82.5,150.6,184v216.3l-41.9.8v-100.7l-216.5-.9c0,35.8,4.3,71.7,1.9,101.6l-10,.4ZM926.2,1670.9l213.2-1.4,1.4-81.2c0-81.3-44.9-138.6-108.3-138.6s-102.5,51.4-107.3,138.6v79.8l.9,2.8Z"/>
              <path class="cls-7" d="M1494.1,1838.6h-32.4l-7-456.9h326.2s-1.8,61.6-1.8,61.6l-259.1,1.1,1.1,144.7,257.8-2.2.3,59.5h-258v192.2h-27Z"/>
              <path class="cls-7" d="M1983.3,1442.2h-130.3v-60.5h328.9v60.5s-125.2,0-125.2,0l-2.2,396.4h-72.4s1.1-396.4,1.1-396.4Z"/>
              <path class="cls-7" d="M2176.3,1602.8c0-119.4,102.3-221.2,224.3-221.2s99-10.9,131.5,4.6l-46.5,72.1c-26-13-32.8-13-62.6-13-101.2,0-180.4,70.1-180.4,167.4s68.3,171.7,169.6,171.7,66.9-4.3,92.9-17.3l11.9,64.8c-31.1,15.6-86.8,6.5-123.1,6.5-123.3,0-217.4-108.6-217.4-228v-7.7Z"/>
              <path class="cls-7" d="M2697.1,1838.6h-113.3l-.2-56.2h66.5l-1.9-340.2h-64.6v-60.5h184.3l-.8,60.5h-61.2l-2.1,340.2h64.1v56.2h-70.8Z"/>
              <path class="cls-7" d="M2965,1442.2h-125.8v-60.5h328.3v60.5h-130.1l2.2,396.4h-72.4s-2.2-396.4-2.2-396.4Z"/>
              <path class="cls-7" d="M3378.3,1621.1l-151.2-193,46.8-46.5,147.6,190.5,140.1-192.6,48.6,45.7-154.8,213.8-.7,199.4h-63.4l1.2-201.2-8.4-9-5.8-7.2Z"/>
            </g>
            <g class="cls-5">
              <g>
                <path class="cls-7" d="M2128.6,1430.7v-20h17.2v36.2h-24.8c-19.1,0-28.6-12.4-28.6-37.2s9.5-37.2,28.6-37.2h24.8v16.2h-17.2c-12.4,0-19.1,5.7-19.1,17.2v7.6c0,11.4,5.7,17.2,18.1,17.2h1Z"/>
                <path class="cls-10" d="M2147.7,1447.9h-26.7c-20,0-30.5-13.3-30.5-39.1s10.5-39.1,30.5-39.1h26.7v19.1h-19.1c-12.4,0-17.2,4.8-17.2,15.3v7.6c0,10.5,4.8,15.3,16.2,15.3v-20h20v39.1h0v1.9ZM2121,1374.4c-18.1,0-26.7,11.4-26.7,35.3s8.6,35.3,26.7,35.3h22.9v-32.4h-13.3v20h-2.9c-13.3,0-20-6.7-20-19.1v-7.6c0-12.4,7.6-19.1,21-19.1h16.2v-12.4h-23.8Z"/>
              </g>
              <g>
                <path class="cls-7" d="M2216.3,1390.7v-1.9h-1.9c-1,0,0,0,0,0h-21v59.1h-16.2v-74.4h38.1c5.7,0,10.5,1.9,13.3,4.8,3.8,2.9,4.8,7.6,4.8,13.3s-1.9,10.5-4.8,14.3l-6.7,7.6c-1,1.9-1,2.9,0,4.8l16.2,28.6h-20l-12.4-23.8c-2.9-5.7-2.9-10.5,0-14.3l7.6-10.5c3.8-4.8,4.8-6.7,4.8-7.6h-1.9Z"/>
                <path class="cls-10" d="M2238.2,1448.8h-24.8l-12.4-24.8c-2.9-6.7-2.9-12.4,0-16.2l7.6-10.5c3.8-4.8,4.8-6.7,4.8-6.7h-20v59.1h-20v-78.2h39.1c5.7,0,10.5,1.9,14.3,5.7,3.8,3.8,5.7,8.6,5.7,15.3s-1.9,11.4-5.7,15.3l-6.7,7.6v3.8l17.2,31.5,1-1.9ZM2177.2,1445h13.3v-59.1h24.8s1,0,1.9,1c0,0,1,1.9,1,2.9s0,1.9-5.7,8.6l-7.6,10.5c-2.9,2.9-2.9,6.7,0,12.4l11.4,22.9h16.2l-14.3-25.7c-1-2.9,0-4.8,0-6.7l6.7-7.6c2.9-2.9,4.8-7.6,4.8-13.3s-1-9.5-4.8-12.4c-2.9-2.9-7.6-4.8-12.4-4.8h-36.2v70.6l1,1Z"/>
              </g>
              <g>
                <path class="cls-7" d="M2308.8,1446.9h-34.3c-9.5,0-14.3-4.8-14.3-15.3v-45.8c0-8.6,4.8-13.3,14.3-13.3h34.3v16.2h-30.5v13.3h25.7v16.2h-25.7v13.3h30.5v16.2-1Z"/>
                <path class="cls-10" d="M2309.7,1447.9h-36.2c-10.5,0-16.2-5.7-16.2-17.2v-45.8c0-9.5,5.7-15.3,16.2-15.3h36.2v19.1h-30.5v9.5h25.7v19.1h-25.7v9.5h30.5v21ZM2274.5,1374.4c-8.6,0-12.4,3.8-12.4,11.4v45.8c0,9.5,3.8,13.3,12.4,13.3h32.4v-12.4h-30.5v-16.2h25.7v-12.4h-25.7v-17.2h30.5v-12.4h-32.4Z"/>
              </g>
              <g>
                <path class="cls-7" d="M2359.3,1435.5l-3.8,11.4h-17.2l26.7-69.6c0-1,1.9-2.9,2.9-3.8,1,0,2.9-1,3.8-1s2.9,0,4.8,1c1,0,1.9,1.9,2.9,3.8l26.7,70.6h-17.2l-4.8-11.4h-24.8v-1ZM2377.4,1419.3l-5.7-16.2-5.7,16.2h12.4-1Z"/>
                <path class="cls-10" d="M2407.9,1447.9h-21l-4.8-11.4h-21.9l-3.8,11.4h-21l26.7-72.5c0-1.9,1.9-2.9,3.8-3.8,2.9-1.9,6.7-1.9,10.5,0s2.9,2.9,3.8,3.8l27.6,72.5h0ZM2388.9,1445h13.3l-25.7-67.7c0-1-1-1.9-1.9-2.9-1.9-1-4.8-1-6.7,0-1,0-1.9,1.9-1.9,2.9l-25.7,67.7h13.3l3.8-11.4h26.7l4.8,11.4h0ZM2380.3,1421.2h-17.2l8.6-21.9,8.6,21.9ZM2367.9,1417.3h7.6l-3.8-9.5-3.8,9.5Z"/>
              </g>
              <g>
                <path class="cls-7" d="M2436.5,1446.9v-58.2h-17.2v-16.2h50.5v16.2h-16.2v58.2h-17.2Z"/>
                <path class="cls-10" d="M2455.6,1448.8h-21v-58.2h-17.2v-19.1h54.3v19.1h-16.2v58.2h0ZM2437.5,1445h14.3v-58.2h16.2v-12.4h-47.7v12.4h17.2v58.2h0Z"/>
              </g>
              <g>
                <path class="cls-7" d="M2544.3,1430.7h29.6c3.8,0,4.8-1.9,4.8-4.8s-1-5.7-3.8-5.7l-19.1-3.8c-2.9,0-5.7-1.9-7.6-2.9-2.9-1.9-5.7-4.8-6.7-7.6-1.9-2.9-2.9-6.7-2.9-10.5s0-6.7,1.9-9.5c1.9-2.9,3.8-5.7,6.7-7.6,2.9-1.9,5.7-2.9,9.5-3.8h34.3v16.2h-28.6c-3.8,0-4.8,1.9-4.8,4.8s1,5.7,3.8,5.7l23.8,5.7c7.6,2.9,11.4,8.6,11.4,17.2s0,7.6-1.9,11.4c-1.9,3.8-3.8,6.7-6.7,8.6-2.9,1.9-5.7,2.9-8.6,3.8h-36.2v-16.2l1-1Z"/>
                <path class="cls-10" d="M2576.7,1447.9h-33.4v-20h31.5c2.9,0,3.8,0,3.8-2.9s-1.9-3.8-1.9-4.8l-19.1-3.8c-2.9,0-5.7-1.9-7.6-3.8-2.9-1.9-5.7-4.8-7.6-8.6-1.9-3.8-2.9-7.6-2.9-11.4s0-7.6,2.9-10.5c1.9-3.8,3.8-5.7,6.7-8.6,2.9-1.9,6.7-2.9,10.5-3.8h36.2v20h-30.5c-2.9,0-3.8,1-3.8,2.9,0,2.9,1,3.8,1.9,4.8l23.8,5.7c8.6,2.9,12.4,9.5,13.3,19.1,0,3.8,0,8.6-1.9,12.4-1.9,3.8-3.8,7.6-7.6,9.5-2.9,1.9-5.7,2.9-9.5,3.8h-4.8ZM2546.2,1445h33.4c2.9,0,5.7-1.9,8.6-3.8,2.9-1.9,4.8-4.8,6.7-7.6,1-3.8,1.9-6.7,1.9-10.5,0-7.6-3.8-13.3-10.5-16.2l-23.8-5.7c-1.9,0-4.8-2.9-4.8-7.6s2.9-6.7,6.7-6.7h26.7v-12.4h-31.5c-3.8,0-6.7,1.9-9.5,3.8-2.9,1.9-4.8,4.8-5.7,7.6-1,2.9-1.9,5.7-1.9,9.5s0,6.7,2.9,9.5c1.9,2.9,3.8,5.7,6.7,7.6,1.9,1,3.8,1.9,6.7,2.9l19.1,3.8c1.9,0,4.8,2.9,4.8,7.6s-2.9,6.7-6.7,6.7h-28.6v12.4h0l-1-1Z"/>
              </g>
              <g>
                <path class="cls-7" d="M2639.6,1446.9v-58.2h-17.2v-16.2h50.5v16.2h-16.2v58.2h-17.2Z"/>
                <path class="cls-10" d="M2658.7,1448.8h-21v-58.2h-17.2v-19.1h54.3v19.1h-16.2v58.2h0ZM2641.5,1445h14.3v-58.2h16.2v-12.4h-47.7v12.4h17.2v58.2h0Z"/>
              </g>
              <g>
                <path class="cls-7" d="M2737.8,1371.6c18.1,0,26.7,12.4,26.7,37.2s-8.6,37.2-26.7,37.2h-11.4c-18.1,0-26.7-12.4-26.7-37.2s8.6-37.2,26.7-37.2h11.4ZM2733,1387.8h-1.9c-9.5,0-14.3,5.7-14.3,17.2v8.6c0,11.4,4.8,17.2,15.3,17.2h0c9.5,0,15.3-5.7,15.3-17.2v-8.6c0-11.4-4.8-17.2-14.3-17.2Z"/>
                <path class="cls-10" d="M2737.8,1448.8h-11.4c-19.1,0-28.6-13.3-28.6-39.1s9.5-39.1,28.6-39.1h11.4c19.1,0,28.6,13.3,28.6,39.1s-9.5,39.1-28.6,39.1ZM2726.4,1373.5c-17.2,0-24.8,11.4-24.8,36.2s8.6,36.2,24.8,36.2h11.4c17.2,0,24.8-11.4,24.8-36.2s-8.6-36.2-24.8-36.2h-11.4ZM2733,1432.6h0c-7.6,0-16.2-2.9-16.2-19.1v-8.6c0-15.3,8.6-19.1,16.2-19.1h1.9c7.6,0,16.2,3.8,16.2,19.1v8.6c0,15.3-8.6,19.1-16.2,19.1h-1.9ZM2731.1,1389.7c-8.6,0-12.4,4.8-12.4,15.3v8.6c0,10.5,3.8,15.3,13.3,15.3h0c8.6,0,13.3-4.8,13.3-15.3v-8.6c0-10.5-3.8-15.3-12.4-15.3h-1.9Z"/>
              </g>
              <g>
                <path class="cls-7" d="M2835.1,1390.7v-1.9h-1.9c-1,0,0,0,0,0h-21v59.1h-16.2v-74.4h38.1c5.7,0,10.5,1.9,13.3,4.8,3.8,2.9,4.8,7.6,4.8,13.3s-1.9,10.5-4.8,14.3l-6.7,7.6c-1,1.9-1,2.9,0,4.8l16.2,28.6h-20l-12.4-23.8c-2.9-5.7-2.9-10.5,0-14.3l7.6-10.5c3.8-4.8,4.8-6.7,4.8-7.6h-1.9Z"/>
                <path class="cls-10" d="M2857.9,1448.8h-24.8l-12.4-24.8c-2.9-6.7-2.9-12.4,0-16.2l7.6-10.5c3.8-4.8,4.8-6.7,4.8-6.7h-20v59.1h-20v-78.2h39.1c5.7,0,10.5,1.9,14.3,5.7,3.8,3.8,5.7,8.6,5.7,15.3s-1.9,11.4-5.7,15.3l-6.7,7.6v3.8l17.2,31.5,1-1.9ZM2796,1445h13.3v-59.1h24.8s1,0,1.9,1c0,0,1,1.9,1,2.9s0,1.9-5.7,8.6l-7.6,10.5c-2.9,2.9-2.9,6.7,0,12.4l11.4,22.9h16.2l-14.3-25.7c-1-2.9,0-4.8,0-6.7l6.7-7.6c2.9-2.9,4.8-7.6,4.8-13.3s-1-9.5-4.8-12.4c-2.9-2.9-7.6-4.8-12.4-4.8h-36.2v70.6l1,1Z"/>
              </g>
              <g>
                <path class="cls-7" d="M2927.5,1446.9h-34.3c-9.5,0-14.3-4.8-14.3-15.3v-45.8c0-8.6,4.8-13.3,14.3-13.3h34.3v16.2h-30.5v13.3h25.7v16.2h-25.7v13.3h30.5v16.2h0v-1Z"/>
                <path class="cls-10" d="M2929.5,1447.9h-36.2c-10.5,0-16.2-5.7-16.2-17.2v-45.8c0-9.5,5.7-15.3,16.2-15.3h36.2v19.1h-30.5v9.5h25.7v19.1h-25.7v9.5h30.5v19.1h0v1.9ZM2893.2,1374.4c-8.6,0-12.4,3.8-12.4,11.4v45.8c0,9.5,3.8,13.3,12.4,13.3h32.4v-12.4h-30.5v-16.2h25.7v-12.4h-25.7v-17.2h30.5v-12.4h-32.4Z"/>
              </g>
              <g>
                <path class="cls-7" d="M3034.3,1430.7v-20h17.2v36.2h-24.8c-19.1,0-28.6-12.4-28.6-37.2s9.5-37.2,28.6-37.2h24.8v16.2h-17.2c-12.4,0-19.1,5.7-19.1,17.2v7.6c0,11.4,5.7,17.2,18.1,17.2h1Z"/>
                <path class="cls-10" d="M3053.4,1447.9h-26.7c-20,0-30.5-13.3-30.5-39.1s10.5-39.1,30.5-39.1h26.7v19.1h-19.1c-12.4,0-17.2,4.8-17.2,15.3v7.6c0,10.5,4.8,15.3,16.2,15.3v-20h20v39.1h0v1.9ZM3026.7,1374.4c-18.1,0-26.7,11.4-26.7,35.3s8.6,35.3,26.7,35.3h22.9v-32.4h-13.3v20h-2.9c-13.3,0-20-6.7-20-19.1v-7.6c0-12.4,7.6-19.1,21-19.1h16.2v-12.4h-23.8Z"/>
              </g>
              <g>
                <path class="cls-7" d="M3122,1390.7v-1.9h-1.9c-1,0,0,0,0,0h-21v59.1h-16.2v-74.4h38.1c5.7,0,10.5,1.9,13.3,4.8,3.8,2.9,4.8,7.6,4.8,13.3s-1.9,10.5-4.8,14.3l-6.7,7.6c-1,1.9-1,2.9,0,4.8l16.2,28.6h-20l-12.4-23.8c-2.9-5.7-2.9-10.5,0-14.3l7.6-10.5c3.8-4.8,4.8-6.7,4.8-7.6h-1.9Z"/>
                <path class="cls-10" d="M3144.9,1448.8h-24.8l-12.4-24.8c-2.9-6.7-2.9-12.4,0-16.2l7.6-10.5c3.8-4.8,4.8-6.7,4.8-6.7h-20v59.1h-20v-78.2h39.1c5.7,0,10.5,1.9,14.3,5.7,3.8,3.8,5.7,8.6,5.7,15.3s-1.9,11.4-5.7,15.3l-6.7,7.6v3.8l17.2,31.5,1-1.9ZM3083,1445h13.3v-59.1h24.8s1,0,1.9,1c0,0,1,1.9,1,2.9s0,1.9-5.7,8.6l-7.6,10.5c-2.9,2.9-2.9,6.7,0,12.4l11.4,22.9h16.2l-14.3-25.7c-1-2.9,0-4.8,0-6.7l6.7-7.6c2.9-2.9,4.8-7.6,4.8-13.3s-1-9.5-4.8-12.4c-2.9-2.9-7.6-4.8-12.4-4.8h-36.2v70.6l1,1Z"/>
              </g>
              <g>
                <path class="cls-7" d="M3214.5,1446.9h-34.3c-9.5,0-14.3-4.8-14.3-15.3v-45.8c0-8.6,4.8-13.3,14.3-13.3h34.3v16.2h-30.5v13.3h25.7v16.2h-25.7v13.3h30.5v16.2-1Z"/>
                <path class="cls-10" d="M3216.4,1447.9h-36.2c-10.5,0-16.2-5.7-16.2-17.2v-45.8c0-9.5,5.7-15.3,16.2-15.3h36.2v19.1h-30.5v9.5h25.7v19.1h-25.7v9.5h30.5v21ZM3180.2,1374.4c-8.6,0-12.4,3.8-12.4,11.4v45.8c0,9.5,3.8,13.3,12.4,13.3h32.4v-12.4h-30.5v-16.2h25.7v-12.4h-25.7v-17.2h30.5v-12.4h-32.4Z"/>
              </g>
              <g>
                <path class="cls-7" d="M3265.1,1435.5l-3.8,11.4h-17.2l26.7-69.6c0-1,1.9-2.9,2.9-3.8,1,0,2.9-1,3.8-1s2.9,0,4.8,1c1,0,1.9,1.9,2.9,3.8l26.7,70.6h-17.2l-4.8-11.4h-24.8v-1ZM3284.1,1419.3l-5.7-16.2-5.7,16.2h12.4-1Z"/>
                <path class="cls-10" d="M3313.7,1447.9h-21l-4.8-11.4h-21.9l-3.8,11.4h-21l26.7-72.5c0-1.9,1.9-2.9,3.8-3.8,2.9-1.9,6.7-1.9,10.5,0,1.9,1,2.9,2.9,3.8,3.8l27.6,72.5h0ZM3295.6,1445h13.3l-25.7-67.7c0-1-1-1.9-1.9-2.9-1.9-1-4.8-1-6.7,0-1,0-1.9,1.9-1.9,2.9l-25.7,67.7h13.3l3.8-11.4h26.7l4.8,11.4h0ZM3286,1421.2h-17.2l8.6-21.9,8.6,21.9ZM3273.6,1417.3h7.6l-3.8-9.5-3.8,9.5Z"/>
              </g>
              <g>
                <path class="cls-7" d="M3342.3,1446.9v-58.2h-17.2v-16.2h50.5v16.2h-16.2v58.2h-17.2Z"/>
                <path class="cls-10" d="M3361.4,1448.8h-21v-58.2h-17.2v-19.1h54.3v19.1h-16.2v58.2h0ZM3344.2,1445h14.3v-58.2h16.2v-12.4h-47.7v12.4h17.2v58.2h0Z"/>
              </g>
              <g>
                <path class="cls-7" d="M3474.8,1372.5h22.9v16.2h-16.2c-12.4,0-19.1,5.7-19.1,17.2v7.6c0,11.4,6.7,17.2,19.1,17.2h16.2v16.2h-22.9c-19.1,0-28.6-12.4-28.6-37.2s9.5-37.2,28.6-37.2h0Z"/>
                <path class="cls-10" d="M3500.5,1447.9h-24.8c-20,0-30.5-13.3-30.5-39.1s10.5-39.1,30.5-39.1h24.8v19.1h-17.2c-6.7,0-10.5,1-13.3,3.8-2.9,2.9-3.8,6.7-3.8,11.4v7.6c0,10.5,5.7,15.3,17.2,15.3h17.2v19.1h0v1.9ZM3474.8,1374.4c-18.1,0-26.7,11.4-26.7,35.3s8.6,35.3,26.7,35.3h21.9v-12.4h-14.3c-17.2,0-21-10.5-21-19.1v-7.6c0-5.7,1.9-10.5,4.8-14.3,3.8-3.8,8.6-4.8,16.2-4.8h14.3v-12.4h-21.9Z"/>
              </g>
              <g>
                <path class="cls-7" d="M3545.4,1418.3v28.6h-17.2v-74.4h17.2v29.6h21v-29.6h17.2v74.4h-17.2v-28.6h-21Z"/>
                <path class="cls-10" d="M3584.5,1448.8h-20v-28.6h-17.2v28.6h-20v-78.2h20v29.6h17.2v-29.6h20v78.2ZM3567.3,1445h13.3v-71.5h-13.3v29.6h-23.8v-29.6h-13.3v71.5h13.3v-28.6h23.8v28.6Z"/>
              </g>
              <g>
                <path class="cls-7" d="M3650.2,1371.6c18.1,0,26.7,12.4,26.7,37.2s-8.6,37.2-26.7,37.2h-11.4c-18.1,0-26.7-12.4-26.7-37.2s8.6-37.2,26.7-37.2h11.4ZM3645.5,1387.8h-1.9c-9.5,0-14.3,5.7-14.3,17.2v8.6c0,11.4,4.8,17.2,15.3,17.2h0c9.5,0,15.3-5.7,15.3-17.2v-8.6c0-11.4-4.8-17.2-14.3-17.2Z"/>
                <path class="cls-10" d="M3650.2,1448.8h-11.4c-19.1,0-28.6-13.3-28.6-39.1s9.5-39.1,28.6-39.1h11.4c19.1,0,28.6,13.3,28.6,39.1s-9.5,39.1-28.6,39.1ZM3638.8,1373.5c-17.2,0-24.8,11.4-24.8,36.2s8.6,36.2,24.8,36.2h11.4c17.2,0,24.8-11.4,24.8-36.2s-8.6-36.2-24.8-36.2h-11.4ZM3645.5,1432.6h0c-7.6,0-16.2-2.9-16.2-19.1v-8.6c0-15.3,8.6-19.1,16.2-19.1h1.9c7.6,0,16.2,3.8,16.2,19.1v8.6c0,15.3-8.6,19.1-16.2,19.1h-1.9ZM3643.6,1389.7c-8.6,0-12.4,4.8-12.4,15.3v8.6c0,10.5,3.8,15.3,13.3,15.3h0c8.6,0,13.3-4.8,13.3-15.3v-8.6c0-10.5-3.8-15.3-12.4-15.3h-1.9Z"/>
              </g>
              <g>
                <path class="cls-7" d="M3707.4,1446.9v-74.4h17.2v74.4h-17.2Z"/>
                <path class="cls-10" d="M3725.6,1448.8h-20v-78.2h20v78.2ZM3708.4,1445h13.3v-71.5h-13.3v71.5Z"/>
              </g>
              <g>
                <path class="cls-7" d="M3782.8,1372.5h22.9v16.2h-16.2c-12.4,0-19.1,5.7-19.1,17.2v7.6c0,11.4,6.7,17.2,19.1,17.2h16.2v16.2h-22.9c-19.1,0-28.6-12.4-28.6-37.2s9.5-37.2,28.6-37.2h0Z"/>
                <path class="cls-10" d="M3807.5,1447.9h-24.8c-20,0-30.5-13.3-30.5-39.1s10.5-39.1,30.5-39.1h24.8v19.1h-17.2c-5.7,0-10.5,1-13.3,3.8-2.9,2.9-3.8,6.7-3.8,11.4v7.6c0,10.5,5.7,15.3,17.2,15.3h17.2v19.1h0v1.9ZM3782.8,1374.4c-18.1,0-26.7,11.4-26.7,35.3s8.6,35.3,26.7,35.3h21.9v-12.4h-14.3c-17.2,0-21-10.5-21-19.1v-7.6c0-5.7,1.9-10.5,4.8-14.3,3.8-3.8,8.6-4.8,16.2-4.8h14.3v-12.4h-21.9Z"/>
              </g>
              <g>
                <path class="cls-7" d="M3883.8,1446.9h-34.3c-9.5,0-14.3-4.8-14.3-15.3v-45.8c0-8.6,4.8-13.3,14.3-13.3h34.3v16.2h-30.5v13.3h25.7v16.2h-25.7v13.3h30.5v16.2-1Z"/>
                <path class="cls-10" d="M3884.8,1447.9h-36.2c-10.5,0-16.2-5.7-16.2-17.2v-45.8c0-9.5,5.7-15.3,16.2-15.3h36.2v19.1h-30.5v9.5h25.7v19.1h-25.7v9.5h30.5v21ZM3849.5,1374.4c-8.6,0-12.4,3.8-12.4,11.4v45.8c0,9.5,3.8,13.3,12.4,13.3h32.4v-12.4h-30.5v-16.2h25.7v-12.4h-25.7v-17.2h30.5v-12.4h-32.4Z"/>
              </g>
            </g>
            <path class="cls-4" d="M513.5,541.2c1.9,14.3,3.8,29.6,5.7,43.9,0,4.8,3.8,10.5-4.8,11.4h-23.8c-2.9-20-5.7-40-9.5-59.1-30.5-134.4-171.6-212.6-296.5-162.1-83.9,34.3-129.7,101.1-143,190.7-5.7,37.2-1.9,75.3-2.9,112.5v884.8h152.5c10.5,0,20,3.8,19.1,15.3,0,11.4-7.6,16.2-20,16.2H-113.9c-10.5,0-19.1-1-25.7-8.6v-14.3c6.7-6.7,14.3-9.5,23.8-9.5H7.2v-964.9c0-111.5,62.9-208.8,160.2-249.8,107.7-44.8,270.8-9.5,328.9,144,5.7,16.2,10.5,32.4,16.2,49.6h1Z"/>
            <path class="cls-4" d="M1268.6,1515.5c-7.6,21-14.3,42-21.9,62.9-4.8,14.3-12.4,15.3-22.9,4.8-16.2-16.2-32.4-33.4-47.7-49.6-12.4-13.3-27.6-19.1-44.8-19.1H466.8c-24.8,0-45.8,6.7-62,25.7-13.3,15.3-27.6,29.6-42,43.9-10.5,10.5-17.2,8.6-22.9-4.8-5.7-16.2-12.4-31.5-16.2-47.7-2.9-12.4-9.5-16.2-21-18.1-45.8-8.6-60.1-24.8-62-70.6-1.9-41,1-82.9,3.8-123.9,1.9-39.1,0-77.2-3.8-116.3v-18.1c1.9-25.7,15.3-40,41-40,42.9-1,84.9-1,127.8,0,12.4,0,19.1-2.9,22.9-15.3,10.5-34.3,17.2-40,53.4-40h615.9c37.2,0,43.9,5.7,54.3,41,2.9,10.5,6.7,13.3,18.1,13.3,36.2-1,73.4-1.9,109.6,0,38.1,2.9,63.9,29.6,63.9,68.6v240.3c0,14.3-3.8,24.8-13.3,35.3-17.2,19.1-38.1,30.5-64.8,27.6h-1ZM342.8,1416.4h0c25.7-36.2,41-75.3,33.4-121.1-5.7-37.2-24.8-69.6-42.9-101.1-10.5-18.1-26.7-25.7-45.8-20-19.1,4.8-29.6,19.1-29.6,40,0,49.6-1,99.2-1.9,148.7,0,27.6,0,54.3,1.9,82,1.9,33.4,19.1,48.6,51.5,51.5,20,1.9,40,1,60.1-1,115.4-12.4,231.7-21.9,348-23.8,150.6-2.9,302.2,2.9,451.9,19.1,35.3,3.8,69.6,8.6,104.9,6.7,34.3-1.9,50.5-18.1,54.3-52.4v-234.5c0-12.4-2.9-22.9-7.6-34.3-1.9-3.8-3.8-7.6-8.6-8.6-11.4-3.8-40,1-47.7,11.4-21.9,28.6-41,59.1-51.5,94.4-10.5,37.2-4.8,72.5,11.4,106.8,5.7,12.4,13.3,23.8,17.2,39.1-94.4-59.1-189.7-90.6-315.6-88.7-91.5,1.9-183.1,1.9-274.6,0-108.7-1.9-208.8,25.7-300.3,84.9-2.9,1.9-5.7,6.7-10.5,2.9l1.9-1.9ZM1077.9,1323c1.9-4.8,3.8-8.6,5.7-12.4,17.2-42.9,34.3-84.9,50.5-127.8,2.9-8.6,5.7-16.2,6.7-25.7,2.9-26.7-8.6-42-34.3-47.7-8.6-1.9-18.1-1.9-26.7-1.9H490.6c-39.1,2.9-55.3,24.8-42.9,62,8.6,27.6,21,54.3,31.5,81,9.5,23.8,18.1,47.7,26.7,72.5,190.7-24.8,381.4-24.8,571.1,0h1ZM339,1160.9c18.1,35.3,37.2,67.7,47.7,103,11.4,36.2,12.4,73.4,0,112.5,24.8-12.4,46.7-22.9,67.7-35.3,24.8-14.3,29.6-28.6,21.9-56.3-7.6-25.7-21-48.6-30.5-73.4-16.2-37.2-42.9-55.3-83.9-49.6h-21.9l-1-1ZM1199,1372.5c-26.7-83.9,19.1-149.7,51.5-221.2-19.1,4.8-36.2,8.6-53.4,12.4-21,3.8-34.3,15.3-44.8,34.3-17.2,33.4-27.6,69.6-39.1,104.9-4.8,16.2,0,29.6,14.3,37.2,21.9,12.4,44.8,21,71.5,31.5v1ZM391.5,1517.5h-43.9v48.6c15.3-17.2,28.6-31.5,43.9-48.6ZM1196.1,1516.5c14.3,17.2,27.6,32.4,42.9,49.6v-49.6h-42.9Z"/>
            <path class="cls-4" d="M513.5,613.6h32.4c8.6,0,15.3,1.9,21,9.5,18.1,47.7,39.1,93.4,59.1,142.1h-236.4c0-8.6,3.8-14.3,6.7-21,16.2-39.1,33.4-77.2,48.6-116.3,4.8-10.5,10.5-15.3,21.9-14.3,15.3,0,30.5,0,46.7,0Z"/>
            <path class="cls-2" d="M537.3,796.7c-6.7,7.6-14.3,15.3-22.9,20v261.2h53.4v-283.2c-10.5,1-20,1.9-30.5,1.9Z"/>
            <path class="cls-4" d="M514.4,794.8c4.8,0,8.6,0,14.3,1-1.9,8.6-8.6,11.4-14.3,14.3-12.4,0-23.8,0-31.5-15.3h31.5Z"/>
            <path class="cls-2" d="M342.8,1416.4s1.9,1,2.9,1.9h0s0-1.9-1-2.9h0l-1.9,1Z"/>
            <polygon class="cls-4" points="1925.5 1389.7 2015.1 1389.7 2000.8 1320.1 1942.7 1320.1 1925.5 1389.7"/>
          </g>
        </g>
      </g>
      <g id="Layer_1-3" data-name="Layer_1">
        <g id="Layer_1-2">
          <g>
            <g class="cls-5">
              <path class="cls-7" d="M2003.2-177.4H300.5V467.7c10.2,12.5,17.8,26.5,20.1,39.3,2.6,18.9,6.4,37.9,8.7,56.8,5,0,8.7,2.6,12.5,3.8,10.2,3.8,18.9,7.6,28,11.4V-73.4c0-10.2,0-21.6,2.6-31.7h1554.5v805.8c3.8,0,7.6,2.6,11.4,5,12.5-26.5,34.1-45.4,59.4-55.6V-153.2c0-7.6-2.6-16.3,2.6-24.2h2.9Z"/>
              <path class="cls-7" d="M1929.8,2102v-137.7h70.8v208.8H303.1v-356.7h68.4c3.8,5,2.6,12.5,2.6,18.9v244c0,18.9,5,22.7,22.7,22.7h1533,0Z"/>
            </g>
            <g class="cls-5">
              <g>
                <polygon class="cls-9" points="2372.5 1764.5 2361.1 1764.5 2094.1 1764.5 2094.1 1828.8 2115.6 1828.8 2115.6 1786 2361.1 1786 2361.1 1859.4 2082.7 1859.4 2082.7 1882.1 2361.1 1882.1 2361.1 1955.5 2105.7 1955.5 2105.7 1901 2082.7 1901 2082.7 1978.2 2383.9 1978.2 2383.9 1764.5 2372.5 1764.5"/>
                <path class="cls-10" d="M2385.3,1979.4h-304.9v-79.8h25.3v54.5h253.1v-69.6h-278.4v-25.3h278.4v-69.6h-241.7v43.1h-25.3v-69.6h293.5v217.5-1.2h0ZM2085.4,1975.6h297.3v-210h-286v62h18.9v-43.1h249.3v77.2h-278.4v18.9h278.4v77.2h-260.6v-54.5h-18.9v73.4-1.2h0Z"/>
              </g>
              <g>
                <circle class="cls-9" cx="2233.3" cy="1822.7" r="14"/>
                <path class="cls-10" d="M2233.3,1839c-8.7,0-16.3-7.6-16.3-16.3s7.6-16.3,16.3-16.3,16.3,7.6,16.3,16.3-7.6,16.3-16.3,16.3ZM2233.3,1809.9c-7.6,0-12.5,5-12.5,12.5s5,12.5,12.5,12.5,12.5-5,12.5-12.5-5-12.5-12.5-12.5Z"/>
              </g>
              <g>
                <circle class="cls-9" cx="2233.3" cy="1912.4" r="14"/>
                <path class="cls-10" d="M2233.3,1928.7c-8.7,0-16.3-7.6-16.3-16.3s7.6-16.3,16.3-16.3,16.3,7.6,16.3,16.3-7.6,16.3-16.3,16.3ZM2233.3,1899.9c-7.6,0-12.5,5-12.5,12.5s5,12.5,12.5,12.5,12.5-5,12.5-12.5-5-12.5-12.5-12.5Z"/>
              </g>
              <g>
                <polygon class="cls-9" points="2280.2 1740.3 2238.5 1740.3 2238.5 1630.2 2228.3 1630.2 2228.3 1740.3 2186.7 1740.3 2186.7 1756.9 2280.2 1756.9 2280.2 1740.3"/>
                <path class="cls-10" d="M2282.8,1759.2h-97.3v-20.1h41.6v-110.1h12.5v110.1h41.6v20.1h1.5ZM2187.9,1755.4h89.7v-12.5h-41.6v-110.1h-5v110.1h-41.6v12.5h-1.5Z"/>
              </g>
            </g>
            <g>
              <rect class="cls-3" x="1445" y="963.9" width="1831.2" height="1067.3"/>
              <rect class="cls-8" x="12.7" y="-4.6" width="3879.4" height="3101.8"/>
              <path class="cls-7" d="M1671.5,2186.7l77.8,144.4c-132.5,149.8-397.4,195.8-604.8,184.3-515-28.6-931.7-427.4-931.7-919s418.8-891.1,934.5-891.1,413.8,67,580.7,194.2l-111.2,83.7c-158.4-119.4-224.1-149.8-426.2-149.8-409,0-789.1,290.1-789.1,754.6s288,714.2,734.2,769c483.6,59.4,349.2-27.1,506.1-146.2l30-23.9-.3-.3ZM888.2,1975.4c60.3,38.4,103.4,89,128.2,168.5l-47.8,21.6c-34.4-115.3-127.3-195.9-230.1-187.9s-13.4.3-23,2.9v182.2h-48.9v-221.1h0v-248.4h190c85,0,151.6,69.8,151.6,145.3s-34.4,125.6-108.4,134.1l-11.5,2.9h0ZM957.5,1837.8c0-47.6-44.5-86.3-97.9-87.6h-132.6v175.2h133.9c54.6,0,97.9-38.5,97.9-87.6h-1.3Z"/>
              <path class="cls-7" d="M1098.9,2162.6l-35,.2c0-53.5,2.8-129.7,2.8-184.7v-71.9c5.5-126.9,79-217.2,177.6-217.2s177.6,97.4,177.6,217.2v255.3h-55.1s-.5-117.4-.5-117.4l-246.2-1.1c0,42.4-.7,77.8-.7,113.8l-.7,5.8h-19.7ZM1119.3,2000.8l246.2,1.2v-92.2c0-95.9-45.3-167.8-120.2-167.8s-120.2,69.6-126,172.6v86.2h0Z"/>
              <path class="cls-7" d="M1554.9,2162.6l-53.5.2v-471.1h355.5v51.1h-303l1,155.5h298.8s.5,51.2.5,51.2l-299.3.4v212.6h0Z"/>
              <path class="cls-7" d="M2083.4,1742.8h-149.3v-51.1h356.7v51.1h-149.8l1.4,420h-58.1l-.2-412.1-.7-7.9Z"/>
              <path class="cls-7" d="M2299.8,1927.4c0-129.7,102-240.8,234.7-240.8s82.7,13.7,118,30.6l-19.7,41.8c-28.3-14.1-61.7-16.2-94-16.2-110,0-183.6,75.7-183.6,181.4s77.9,182.5,187.9,182.5,60.6-8.5,88.6-22.7l21.6,58.3c-33.8,16.9-75.9,20.2-115.6,20.2-134,0-238-105.2-238-235.2v-.3.3Z"/>
              <path class="cls-7" d="M2851,2162.8h-122.6v-47.7l77.9.7-1.4-373h-76.4v-51.1h200.3v51.1h-74.2v372.2s74.2,1.4,74.2,1.4v46.3h-79,1.5-.3Z"/>
              <path class="cls-7" d="M3151.9,1742.8h-145.7v-51.1h356.7v51.1l-148.4,2.2-2.2,417.8h-56.9v-420h-3.6Z"/>
              <path class="cls-7" d="M3606.9,1933.6l-168.5-206.6,41.8-35.3,153.4,190.1,157.7-188.6,33.8,34.6-163.4,208.1,1.4,226.8h-55.1l1.1-224.6h0l-2.2-4.3Z"/>
            </g>
            <g class="cls-5">
              <g>
                <path class="cls-7" d="M2443.3,1688.4v-26.5h22.7v48.1h-32.9c-25.3,0-37.9-16.3-37.9-49.2s12.5-49.2,37.9-49.2h32.9v21.6h-22.7c-16.3,0-25.3,7.6-25.3,22.7v10.2c0,15.1,7.6,22.7,24.2,22.7h1.2v-.3Z"/>
                <path class="cls-10" d="M2468.6,1711.2h-35.5c-26.5,0-40.5-17.8-40.5-51.8s14-51.8,40.5-51.8h35.5v25.3h-25.3c-16.3,0-22.7,6.4-22.7,20.1v10.2c0,14,6.4,20.1,21.6,20.1v-26.5h26.5v51.8h0v2.6h0ZM2433.4,1613.9c-24.2,0-35.5,15.1-35.5,46.9s11.4,46.9,35.5,46.9h30.3v-43.1h-17.8v26.5h-3.8c-17.8,0-26.5-8.7-26.5-25.3v-10.2c0-16.3,10.2-25.3,28-25.3h21.6v-16.3h-31.7Z"/>
              </g>
              <g>
                <path class="cls-7" d="M2559.8,1635.4v-2.6h-2.6c-1.2,0,0,0,0,0h-28v78.3h-21.6v-98.7h50.7c7.6,0,14,2.6,17.8,6.4,5,3.8,6.4,10.2,6.4,17.8s-2.6,14-6.4,18.9l-8.7,10.2c-1.2,2.6-1.2,3.8,0,6.4l21.6,37.9h-26.5l-16.3-31.7c-3.8-7.6-3.8-14,0-18.9l10.2-14c5-6.4,6.4-8.7,6.4-10.2h-2.6l-.3.3Z"/>
                <path class="cls-10" d="M2588.9,1712.6h-32.9l-16.3-32.9c-3.8-8.7-3.8-16.3,0-21.6l10.2-14c5-6.4,6.4-8.7,6.4-8.7h-26.5v78.3h-26.5v-103.7h51.8c7.6,0,14,2.6,18.9,7.6,5,5,7.6,11.4,7.6,20.1s-2.6,15.1-7.6,20.1l-8.7,10.2v5l22.7,41.6,1.2-2.6-.3.6ZM2507.9,1707.4h17.8v-78.3h32.9s1.2,0,2.6,1.2c0,0,1.2,2.6,1.2,3.8s0,2.6-7.6,11.4l-10.2,14c-3.8,3.8-3.8,8.7,0,16.3l15.1,30.3h21.6l-18.9-34.1c-1.2-3.8,0-6.4,0-8.7l8.7-10.2c3.8-3.8,6.4-10.2,6.4-17.8s-1.2-12.5-6.4-16.3c-3.8-3.8-10.2-6.4-16.3-6.4h-48.1v93.5l1.2,1.2v.3Z"/>
              </g>
              <g>
                <path class="cls-7" d="M2682.4,1710h-45.4c-12.5,0-18.9-6.4-18.9-20.1v-60.6c0-11.4,6.4-17.8,18.9-17.8h45.4v21.6h-40.5v17.8h34.1v21.6h-34.1v17.8h40.5v21.6-1.7Z"/>
                <path class="cls-10" d="M2683.8,1711.2h-48.1c-14,0-21.6-7.6-21.6-22.7v-60.6c0-12.5,7.6-20.1,21.6-20.1h48.1v25.3h-40.5v12.5h34.1v25.3h-34.1v12.5h40.5v28-.3ZM2636.9,1613.9c-11.4,0-16.3,5-16.3,15.1v60.6c0,12.5,5,17.8,16.3,17.8h43.1v-16.3h-40.5v-21.6h34.1v-16.3h-34.1v-22.7h40.5v-16.3h-43.1v-.3Z"/>
              </g>
              <g>
                <path class="cls-7" d="M2749.3,1694.9l-5,15.1h-22.7l35.5-92.3c0-1.2,2.6-3.8,3.8-5,1.2,0,3.8-1.2,5-1.2s3.8,0,6.4,1.2c1.2,0,2.6,2.6,3.8,5l35.5,93.5h-22.7l-6.4-15.1h-32.9v-1.2h-.3ZM2773.5,1673.3l-7.6-21.6-7.6,21.6h16.3-1.2Z"/>
                <path class="cls-10" d="M2814,1711.2h-28l-6.4-15.1h-29.1l-5,15.1h-28l35.5-96.1c0-2.6,2.6-3.8,5-5,3.8-2.6,8.7-2.6,14,0s3.8,3.8,5,5l36.7,96.1h.3ZM2788.7,1707.4h17.8l-34.1-89.7c0-1.2-1.2-2.6-2.6-3.8-2.6-1.2-6.4-1.2-8.7,0-1.2,0-2.6,2.6-2.6,3.8l-34.1,89.7h17.8l5-15.1h35.5l6.4,15.1h-.3ZM2777.3,1675.9h-22.7l11.4-29.1,11.4,29.1h0ZM2761,1670.7h10.2l-5-12.5-5,12.5h-.3Z"/>
              </g>
              <g>
                <path class="cls-7" d="M2851.9,1710v-77.2h-22.7v-21.6h67v21.6h-21.6v77.2h-22.7Z"/>
                <path class="cls-10" d="M2877.2,1712.6h-28v-77.2h-22.7v-25.3h72.2v25.3h-21.6v77.2h0ZM2853.3,1707.4h18.9v-77.2h21.6v-16.3h-63.2v16.3h22.7v77.2h0Z"/>
              </g>
              <g>
                <path class="cls-7" d="M2994.8,1688.4h39.3c5,0,6.4-2.6,6.4-6.4s-1.2-7.6-5-7.6l-25.3-5c-3.8,0-7.6-2.6-10.2-3.8-3.8-2.6-7.6-6.4-8.7-10.2-2.6-3.8-3.8-8.7-3.8-14s0-8.7,2.6-12.5,5-7.6,8.7-10.2,7.6-3.8,12.5-5h45.4v21.6h-37.9c-5,0-6.4,2.6-6.4,6.4s1.2,7.6,5,7.6l31.7,7.6c10.2,3.8,15.1,11.4,15.1,22.7s0,10.2-2.6,15.1c-2.6,5-5,8.7-8.7,11.4s-7.6,3.8-11.4,5h-48.1v-21.6l1.2-1.2Z"/>
                <path class="cls-10" d="M3037.9,1711.2h-44.3v-26.5h41.6c3.8,0,5,0,5-3.8s-2.6-5-2.6-6.4l-25.3-5c-3.8,0-7.6-2.6-10.2-5-3.8-2.6-7.6-6.4-10.2-11.4s-3.8-10.2-3.8-15.1,0-10.2,3.8-14c2.6-5,5-7.6,8.7-11.4,3.8-2.6,8.7-3.8,14-5h48.1v26.5h-40.5c-3.8,0-5,1.2-5,3.8,0,3.8,1.2,5,2.6,6.4l31.7,7.6c11.4,3.8,16.3,12.5,17.8,25.3,0,5,0,11.4-2.6,16.3-2.6,5-5,10.2-10.2,12.5-3.8,2.6-7.6,3.8-12.5,5h-6.4.3ZM2997.5,1707.4h44.3c3.8,0,7.6-2.6,11.4-5,3.8-2.6,6.4-6.4,8.7-10.2,1.2-5,2.6-8.7,2.6-14,0-10.2-5-17.8-14-21.6l-31.7-7.6c-2.6,0-6.4-3.8-6.4-10.2s3.8-8.7,8.7-8.7h35.5v-16.3h-41.6c-5,0-8.7,2.6-12.5,5-3.8,2.6-6.4,6.4-7.6,10.2-1.2,3.8-2.6,7.6-2.6,12.5s0,8.7,3.8,12.5c2.6,3.8,5,7.6,8.7,10.2,2.6,1.2,5,2.6,8.7,3.8l25.3,5c2.6,0,6.4,3.8,6.4,10.2s-3.8,8.7-8.7,8.7h-37.9v16.3h0l-1.2-1.2v.3Z"/>
              </g>
              <g>
                <path class="cls-7" d="M3121.2,1710v-77.2h-22.7v-21.6h67v21.6h-21.6v77.2h-22.7,0Z"/>
                <path class="cls-10" d="M3146.6,1712.6h-28v-77.2h-22.7v-25.3h72.2v25.3h-21.6v77.2h0ZM3123.8,1707.4h18.9v-77.2h21.6v-16.3h-63.2v16.3h22.7v77.2h0Z"/>
              </g>
              <g>
                <path class="cls-7" d="M3251.7,1610.1c24.2,0,35.5,16.3,35.5,49.2s-11.4,49.2-35.5,49.2h-15.1c-24.2,0-35.5-16.3-35.5-49.2s11.4-49.2,35.5-49.2h15.1ZM3245.3,1631.7h-2.6c-12.5,0-18.9,7.6-18.9,22.7v11.4c0,15.1,6.4,22.7,20.1,22.7h0c12.5,0,20.1-7.6,20.1-22.7v-11.4c0-15.1-6.4-22.7-18.9-22.7h.3Z"/>
                <path class="cls-10" d="M3251.7,1712.6h-15.1c-25.3,0-37.9-17.8-37.9-51.8s12.5-51.8,37.9-51.8h15.1c25.3,0,37.9,17.8,37.9,51.8s-12.5,51.8-37.9,51.8ZM3236.6,1612.7c-22.7,0-32.9,15.1-32.9,48.1s11.4,48.1,32.9,48.1h15.1c22.7,0,32.9-15.1,32.9-48.1s-11.4-48.1-32.9-48.1h-15.1ZM3245.3,1691.1h0c-10.2,0-21.6-3.8-21.6-25.3v-11.4c0-20.1,11.4-25.3,21.6-25.3h2.6c10.2,0,21.6,5,21.6,25.3v11.4c0,20.1-11.4,25.3-21.6,25.3h-2.6ZM3242.7,1634c-11.4,0-16.3,6.4-16.3,20.1v11.4c0,14,5,20.1,17.8,20.1h0c11.4,0,17.8-6.4,17.8-20.1v-11.4c0-14-5-20.1-16.3-20.1h-2.9Z"/>
              </g>
              <g>
                <path class="cls-7" d="M3380.7,1635.4v-2.6h-2.6c-1.2,0,0,0,0,0h-28v78.3h-21.6v-98.7h50.7c7.6,0,14,2.6,17.8,6.4,5,3.8,6.4,10.2,6.4,17.8s-2.6,14-6.4,18.9l-8.7,10.2c-1.2,2.6-1.2,3.8,0,6.4l21.6,37.9h-26.5l-16.3-31.7c-3.8-7.6-3.8-14,0-18.9l10.2-14c5-6.4,6.4-8.7,6.4-10.2h-2.6l-.3.3Z"/>
                <path class="cls-10" d="M3411,1712.6h-32.9l-16.3-32.9c-3.8-8.7-3.8-16.3,0-21.6l10.2-14c5-6.4,6.4-8.7,6.4-8.7h-26.5v78.3h-26.5v-103.7h51.8c7.6,0,14,2.6,18.9,7.6,5,5,7.6,11.4,7.6,20.1s-2.6,15.1-7.6,20.1l-8.7,10.2v5l22.7,41.6,1.2-2.6-.3.6ZM3328.9,1707.4h17.8v-78.3h32.9s1.2,0,2.6,1.2c0,0,1.2,2.6,1.2,3.8s0,2.6-7.6,11.4l-10.2,14c-3.8,3.8-3.8,8.7,0,16.3l15.1,30.3h21.6l-18.9-34.1c-1.2-3.8,0-6.4,0-8.7l8.7-10.2c3.8-3.8,6.4-10.2,6.4-17.8s-1.2-12.5-6.4-16.3c-3.8-3.8-10.2-6.4-16.3-6.4h-48.1v93.5l1.2,1.2v.3Z"/>
              </g>
              <g>
                <path class="cls-7" d="M3503.3,1710h-45.4c-12.5,0-18.9-6.4-18.9-20.1v-60.6c0-11.4,6.4-17.8,18.9-17.8h45.4v21.6h-40.5v17.8h34.1v21.6h-34.1v17.8h40.5v21.6h0v-1.7Z"/>
                <path class="cls-10" d="M3505.9,1711.2h-48.1c-14,0-21.6-7.6-21.6-22.7v-60.6c0-12.5,7.6-20.1,21.6-20.1h48.1v25.3h-40.5v12.5h34.1v25.3h-34.1v12.5h40.5v25.3h0v2.6-.3ZM3457.9,1613.9c-11.4,0-16.3,5-16.3,15.1v60.6c0,12.5,5,17.8,16.3,17.8h43.1v-16.3h-40.5v-21.6h34.1v-16.3h-34.1v-22.7h40.5v-16.3h-43.1v-.3Z"/>
              </g>
              <g>
                <path class="cls-7" d="M3645.1,1688.4v-26.5h22.7v48.1h-32.9c-25.3,0-37.9-16.3-37.9-49.2s12.5-49.2,37.9-49.2h32.9v21.6h-22.7c-16.3,0-25.3,7.6-25.3,22.7v10.2c0,15.1,7.6,22.7,24.2,22.7h1.2v-.3Z"/>
                <path class="cls-10" d="M3670.5,1711.2h-35.5c-26.5,0-40.5-17.8-40.5-51.8s14-51.8,40.5-51.8h35.5v25.3h-25.3c-16.3,0-22.7,6.4-22.7,20.1v10.2c0,14,6.4,20.1,21.6,20.1v-26.5h26.5v51.8h0v2.6h0ZM3634.9,1613.9c-24.2,0-35.5,15.1-35.5,46.9s11.4,46.9,35.5,46.9h30.3v-43.1h-17.8v26.5h-3.8c-17.8,0-26.5-8.7-26.5-25.3v-10.2c0-16.3,10.2-25.3,28-25.3h21.6v-16.3h-31.7Z"/>
              </g>
              <g>
                <path class="cls-7" d="M3761.3,1635.4v-2.6h-2.6c-1.2,0,0,0,0,0h-28v78.3h-21.6v-98.7h50.7c7.6,0,14,2.6,17.8,6.4,5,3.8,6.4,10.2,6.4,17.8s-2.6,14-6.4,18.9l-8.7,10.2c-1.2,2.6-1.2,3.8,0,6.4l21.6,37.9h-26.5l-16.3-31.7c-3.8-7.6-3.8-14,0-18.9l10.2-14c5-6.4,6.4-8.7,6.4-10.2h-2.6l-.3.3Z"/>
                <path class="cls-10" d="M3791.9,1712.6h-32.9l-16.3-32.9c-3.8-8.7-3.8-16.3,0-21.6l10.2-14c5-6.4,6.4-8.7,6.4-8.7h-26.5v78.3h-26.5v-103.7h51.8c7.6,0,14,2.6,18.9,7.6,5,5,7.6,11.4,7.6,20.1s-2.6,15.1-7.6,20.1l-8.7,10.2v5l22.7,41.6,1.2-2.6-.3.6ZM3709.5,1707.4h17.8v-78.3h32.9s1.2,0,2.6,1.2c0,0,1.2,2.6,1.2,3.8s0,2.6-7.6,11.4l-10.2,14c-3.8,3.8-3.8,8.7,0,16.3l15.1,30.3h21.6l-18.9-34.1c-1.2-3.8,0-6.4,0-8.7l8.7-10.2c3.8-3.8,6.4-10.2,6.4-17.8s-1.2-12.5-6.4-16.3c-3.8-3.8-10.2-6.4-16.3-6.4h-48.1v93.5l1.2,1.2v.3Z"/>
              </g>
              <g>
                <path class="cls-7" d="M3884.2,1710h-45.4c-12.5,0-18.9-6.4-18.9-20.1v-60.6c0-11.4,6.4-17.8,18.9-17.8h45.4v21.6h-40.5v17.8h34.1v21.6h-34.1v17.8h40.5v21.6-1.7Z"/>
                <path class="cls-10" d="M3886.6,1711.2h-48.1c-14,0-21.6-7.6-21.6-22.7v-60.6c0-12.5,7.6-20.1,21.6-20.1h48.1v25.3h-40.5v12.5h34.1v25.3h-34.1v12.5h40.5v28-.3ZM3838.5,1613.9c-11.4,0-16.3,5-16.3,15.1v60.6c0,12.5,5,17.8,16.3,17.8h43.1v-16.3h-40.5v-21.6h34.1v-16.3h-34.1v-22.7h40.5v-16.3h-43.1v-.3Z"/>
              </g>
              <g>
                <path class="cls-7" d="M3951.2,1694.9l-5,15.1h-22.7l35.5-92.3c0-1.2,2.6-3.8,3.8-5,1.2,0,3.8-1.2,5-1.2s3.8,0,6.4,1.2c1.2,0,2.6,2.6,3.8,5l35.5,93.5h-22.7l-6.4-15.1h-32.9v-1.2h-.3ZM3976.5,1673.3l-7.6-21.6-7.6,21.6h16.3-1.2Z"/>
                <path class="cls-10" d="M4015.6,1711.2h-28l-6.4-15.1h-29.1l-5,15.1h-28l35.5-96.1c0-2.6,2.6-3.8,5-5,3.8-2.6,8.7-2.6,14,0s3.8,3.8,5,5l36.7,96.1h.3ZM3991.7,1707.4h17.8l-34.1-89.7c0-1.2-1.2-2.6-2.6-3.8-2.6-1.2-6.4-1.2-8.7,0-1.2,0-2.6,2.6-2.6,3.8l-34.1,89.7h17.8l5-15.1h35.5l6.4,15.1h-.3ZM3978.9,1675.9h-22.7l11.4-29.1,11.4,29.1ZM3962.6,1670.7h10.2l-5-12.5-5,12.5h-.3Z"/>
              </g>
              <g>
                <path class="cls-7" d="M4053.7,1710v-77.2h-22.7v-21.6h67v21.6h-21.6v77.2h-22.7,0Z"/>
                <path class="cls-10" d="M4079.1,1712.6h-28v-77.2h-22.7v-25.3h72.2v25.3h-21.6v77.2h0ZM4056,1707.4h18.9v-77.2h21.6v-16.3h-63.2v16.3h22.7v77.2h0Z"/>
              </g>
              <g>
                <path class="cls-7" d="M4229.3,1611.3h30.3v21.6h-21.6c-16.3,0-25.3,7.6-25.3,22.7v10.2c0,15.1,8.7,22.7,25.3,22.7h21.6v21.6h-30.3c-25.3,0-37.9-16.3-37.9-49.2s12.5-49.2,37.9-49.2h0v-.3Z"/>
                <path class="cls-10" d="M4263.7,1711.2h-32.9c-26.5,0-40.5-17.8-40.5-51.8s14-51.8,40.5-51.8h32.9v25.3h-22.7c-8.7,0-14,1.2-17.8,5-3.8,3.8-5,8.7-5,15.1v10.2c0,14,7.6,20.1,22.7,20.1h22.7v25.3h0v2.6h0ZM4229.3,1613.9c-24.2,0-35.5,15.1-35.5,46.9s11.4,46.9,35.5,46.9h29.1v-16.3h-18.9c-22.7,0-28-14-28-25.3v-10.2c0-7.6,2.6-14,6.4-18.9,5-5,11.4-6.4,21.6-6.4h18.9v-16.3h-29.1v-.3Z"/>
              </g>
              <g>
                <path class="cls-7" d="M4323.1,1672.1v37.9h-22.7v-98.7h22.7v39.3h28v-39.3h22.7v98.7h-22.7v-37.9h-28Z"/>
                <path class="cls-10" d="M4374.9,1712.6h-26.5v-37.9h-22.7v37.9h-26.5v-103.7h26.5v39.3h22.7v-39.3h26.5v103.7ZM4352.2,1707.4h17.8v-94.9h-17.8v39.3h-31.7v-39.3h-17.8v94.9h17.8v-37.9h31.7v37.9Z"/>
              </g>
              <g>
                <path class="cls-7" d="M4462.3,1610.1c24.2,0,35.5,16.3,35.5,49.2s-11.4,49.2-35.5,49.2h-15.1c-24.2,0-35.5-16.3-35.5-49.2s11.4-49.2,35.5-49.2h15.1ZM4455.9,1631.7h-2.6c-12.5,0-18.9,7.6-18.9,22.7v11.4c0,15.1,6.4,22.7,20.1,22.7h0c12.5,0,20.1-7.6,20.1-22.7v-11.4c0-15.1-6.4-22.7-18.9-22.7h.3Z"/>
                <path class="cls-10" d="M4462.3,1712.6h-15.1c-25.3,0-37.9-17.8-37.9-51.8s12.5-51.8,37.9-51.8h15.1c25.3,0,37.9,17.8,37.9,51.8s-12.5,51.8-37.9,51.8ZM4447.2,1612.7c-22.7,0-32.9,15.1-32.9,48.1s11.4,48.1,32.9,48.1h15.1c22.7,0,32.9-15.1,32.9-48.1s-11.4-48.1-32.9-48.1h-15.1ZM4455.9,1691.1h0c-10.2,0-21.6-3.8-21.6-25.3v-11.4c0-20.1,11.4-25.3,21.6-25.3h2.6c10.2,0,21.6,5,21.6,25.3v11.4c0,20.1-11.4,25.3-21.6,25.3h-2.6ZM4453.3,1634c-11.4,0-16.3,6.4-16.3,20.1v11.4c0,14,5,20.1,17.8,20.1h0c11.4,0,17.8-6.4,17.8-20.1v-11.4c0-14-5-20.1-16.3-20.1h-2.9Z"/>
              </g>
              <g>
                <path class="cls-7" d="M4538,1710v-98.7h22.7v98.7h-22.7Z"/>
                <path class="cls-10" d="M4562.2,1712.6h-26.5v-103.7h26.5v103.7ZM4539.5,1707.4h17.8v-94.9h-17.8v94.9Z"/>
              </g>
              <g>
                <path class="cls-7" d="M4637.9,1611.3h30.3v21.6h-21.6c-16.3,0-25.3,7.6-25.3,22.7v10.2c0,15.1,8.7,22.7,25.3,22.7h21.6v21.6h-30.3c-25.3,0-37.9-16.3-37.9-49.2s12.5-49.2,37.9-49.2h0v-.3Z"/>
                <path class="cls-10" d="M4670.8,1711.2h-32.9c-26.5,0-40.5-17.8-40.5-51.8s14-51.8,40.5-51.8h32.9v25.3h-22.7c-7.6,0-14,1.2-17.8,5-3.8,3.8-5,8.7-5,15.1v10.2c0,14,7.6,20.1,22.7,20.1h22.7v25.3h0v2.6h0ZM4637.9,1613.9c-24.2,0-35.5,15.1-35.5,46.9s11.4,46.9,35.5,46.9h29.1v-16.3h-18.9c-22.7,0-28-14-28-25.3v-10.2c0-7.6,2.6-14,6.4-18.9,5-5,11.4-6.4,21.6-6.4h18.9v-16.3h-29.1v-.3Z"/>
              </g>
              <g>
                <path class="cls-7" d="M4772.2,1710h-45.4c-12.5,0-18.9-6.4-18.9-20.1v-60.6c0-11.4,6.4-17.8,18.9-17.8h45.4v21.6h-40.5v17.8h34.1v21.6h-34.1v17.8h40.5v21.6-1.7Z"/>
                <path class="cls-10" d="M4773.3,1711.2h-48.1c-14,0-21.6-7.6-21.6-22.7v-60.6c0-12.5,7.6-20.1,21.6-20.1h48.1v25.3h-40.5v12.5h34.1v25.3h-34.1v12.5h40.5v28-.3ZM4726.4,1613.9c-11.4,0-16.3,5-16.3,15.1v60.6c0,12.5,5,17.8,16.3,17.8h43.1v-16.3h-40.5v-21.6h34.1v-16.3h-34.1v-22.7h40.5v-16.3h-43.1v-.3Z"/>
              </g>
            </g>
            <path class="cls-4" d="M300.5,508.4c2.6,18.9,5,39.3,7.6,58.2,0,6.4,5,14-6.4,15.1h-31.7c-3.8-26.5-7.6-53-12.5-78.3C216.9,325.2,29.6,221.3-136.1,288.6c-111.2,45.4-172.1,134-189.9,253.1-7.6,49.2-2.6,99.9-3.8,149.4v1173.9H-127.3c14,0,26.5,5,25.3,20.1,0,15.1-10.2,21.6-26.5,21.6h-403.6c-14,0-25.3-1.2-34.1-11.4v-18.9c8.7-8.7,18.9-12.5,31.7-12.5h163.1V583c0-147.9,83.6-277,212.6-331.4,143-59.4,359.4-12.5,436.5,191,7.6,21.6,14,43.1,21.6,65.8h1.2Z"/>
            <path class="cls-4" d="M1302.3,1801.1c-10.2,28-18.9,55.6-29.1,83.6-6.4,18.9-16.3,20.1-30.3,6.4-21.6-21.6-43.1-44.3-63.2-65.8-16.3-17.8-36.7-25.3-59.4-25.3H238.4c-32.9,0-60.6,8.7-82.1,34.1-17.8,20.1-36.7,39.3-55.6,58.2-14,14-22.7,11.4-30.3-6.4-7.6-21.6-16.3-41.6-21.6-63.2-3.8-16.3-12.5-21.6-28-24.2-60.6-11.4-79.8-32.9-82.1-93.5-2.6-54.5,1.2-110.1,5-164.5,2.6-51.8,0-102.5-5-154.3v-24.2c2.6-34.1,20.1-53,54.5-53,56.8-1.2,112.7-1.2,169.5,0,16.3,0,25.3-3.8,30.3-20.1,14-45.4,22.7-53,70.8-53h817.2c49.2,0,58.2,7.6,72.2,54.5,3.8,14,8.7,17.8,24.2,17.8,48.1-1.2,97.3-2.6,145.6,0,50.7,3.8,84.7,39.3,84.7,91.2v318.9c0,18.9-5,32.9-17.8,46.9-22.7,25.3-50.7,40.5-85.9,36.7h-1.2l-.6-.6ZM74.2,1669.5h0c34.1-48.1,54.5-99.9,44.3-160.8-7.6-49.2-32.9-92.3-56.8-134-14-24.2-35.5-34.1-60.6-26.5-25.3,6.4-39.3,25.3-39.3,53,0,65.8-1.2,131.6-2.6,197.4,0,36.7,0,72.2,2.6,108.9,2.6,44.3,25.3,64.7,68.4,68.4,26.5,2.6,53,1.2,79.8-1.2,153.2-16.3,307.2-29.1,461.6-31.7,199.8-3.8,401,3.8,599.6,25.3,46.9,5,92.3,11.4,139.2,8.7,45.4-2.6,67-24.2,72.2-69.6v-311.3c0-16.3-3.8-30.3-10.2-45.4-2.6-5-5-10.2-11.4-11.4-15.1-5-53,1.2-63.2,15.1-29.1,37.9-54.5,78.3-68.4,125.2-14,49.2-6.4,96.1,15.1,141.5,7.6,16.3,17.8,31.7,22.7,51.8-125.2-78.3-251.6-120.3-418.8-117.7-121.4,2.6-242.9,2.6-364.3,0-144.2-2.6-277,34.1-398.4,112.7-3.8,2.6-7.6,8.7-14,3.8l2.6-2.6h-.3ZM1049.5,1545.5c2.6-6.4,5-11.4,7.6-16.3,22.7-56.8,45.4-112.7,67-169.5,3.8-11.4,7.6-21.6,8.7-34.1,3.8-35.5-11.4-55.6-45.4-63.2-11.4-2.6-24.2-2.6-35.5-2.6H270.2c-51.8,3.8-73.4,32.9-56.8,82.1,11.4,36.7,28,72.2,41.6,107.5,12.5,31.7,24.2,63.2,35.5,96.1,253.1-32.9,505.8-32.9,757.8,0h1.2ZM69,1330.5c24.2,46.9,49.2,89.7,63.2,136.6,15.1,48.1,16.3,97.3,0,149.4,32.9-16.3,62-30.3,89.7-46.9,32.9-18.9,39.3-37.9,29.1-74.6-10.2-34.1-28-64.7-40.5-97.3-21.6-49.2-56.8-73.4-111.2-65.8h-29.1l-1.2-1.2v-.3ZM1210,1611.3c-35.5-111.2,25.3-198.6,68.4-293.5-25.3,6.4-48.1,11.4-70.8,16.3-28,5-45.4,20.1-59.4,45.4-22.7,44.3-36.7,92.3-51.8,139.2-6.4,21.6,0,39.3,18.9,49.2,29.1,16.3,59.4,28,94.9,41.6v1.2l-.3.6ZM138.6,1803.5h-58.2v64.7c20.1-22.7,37.9-41.6,58.2-64.7ZM1206.2,1802.3c18.9,22.7,36.7,43.1,56.8,65.8v-65.8h-56.8Z"/>
            <path class="cls-4" d="M300.5,604.5h43.1c11.4,0,20.1,2.6,28,12.5,24.2,63.2,51.8,124.1,78.3,188.4H136.2c0-11.4,5-18.9,8.7-28,21.6-51.8,44.3-102.5,64.7-154.3,6.4-14,14-20.1,29.1-18.9h62l-.3.3Z"/>
            <path class="cls-2" d="M332.2,847.4c-8.7,10.2-18.9,20.1-30.3,26.5v346.6h70.8v-375.7c-14,1.2-26.5,2.6-40.5,2.6Z"/>
            <path class="cls-4" d="M301.9,844.8c6.4,0,11.4,0,18.9,1.2-2.6,11.4-11.4,15.1-18.9,18.9-16.3,0-31.7,0-41.6-20.1h41.6Z"/>
            <path class="cls-2" d="M74.2,1669.5s2.6,1.2,3.8,2.6h0s0-2.6-1.2-3.8h0l-2.6,1.2h0Z"/>
            <polygon class="cls-4" points="2173.9 1634 2292.7 1634 2273.8 1541.7 2196.6 1541.7 2173.9 1634"/>
          </g>
        </g>
        <g class="cls-1">
          <text class="cls-6" transform="translate(1921.7 1455.2)"><tspan x="0" y="0">RAFTCITY</tspan></text>
        </g>
        <g class="cls-5">
          <path d="M1868.1,1516.3c-118.8,0-205.3,75.7-205.3,194.5s97.3,194.5,216.1,194.5,140.4-32.3,173-75.7l-75.7-53.9c-21.6,32.3-64.9,43.1-97.3,43.1-53.9,0-97.3-32.3-108-75.7h302.6v-32.3c0-118.8-86.5-194.5-205.3-194.5h0ZM1770.8,1678.3c10.8-43.1,43.1-75.7,97.3-75.7s86.5,32.3,97.3,75.7h-194.5ZM3034.7,1516.3c-118.8,0-205.3,75.7-205.3,194.5s97.3,194.5,216.1,194.5,129.6-32.3,173-75.7l-86.5-53.9c-21.6,32.3-53.9,43.1-86.5,43.1-53.9,0-97.3-32.3-118.8-75.7h302.6l10.8-32.3c0-118.8-86.5-194.5-205.3-194.5h0ZM2926.7,1678.3c21.6-43.1,53.9-75.7,108-75.7s86.5,32.3,97.3,75.7h-205.3ZM2505.6,1710.6c0,64.9,43.1,108,108,108s75.7-21.6,97.3-53.9l86.5,53.9c-32.3,53.9-97.3,86.5-183.8,86.5s-205.3-75.7-205.3-194.5,86.5-194.5,205.3-194.5,151.1,32.3,183.8,86.5l-86.5,53.9c-21.6-32.3-53.9-53.9-97.3-53.9-64.9,0-108,43.1-108,108ZM3402,1397.5v496.8h-97.3v-496.8h97.3ZM744.6,1343.4l399.6,691.4H345l399.6-691.4h0ZM1738.5,1397.5l-291.8,518.7-302.6-518.7h108l194.5,324.1,183.8-324.1h108ZM2375.7,1527.1v108l-32.3-10.8c-64.9,0-108,43.1-108,108v161.9h-97.3v-367.2h97.3v97.3c0-53.9,64.9-97.3,140.4-97.3h0Z"/>
        </g>
      </g>
    </g>
  </g>
</svg>