<?xml version="1.0" encoding="UTF-8"?>
<svg xmlns="http://www.w3.org/2000/svg" version="1.1" viewBox="0 0 427.2 192.1">
  <defs>
    <style>
      .cls-1 {
        fill: #fdb21b;
      }

      .cls-2 {
        fill: #dbdbdb;
      }

      .cls-3 {
        fill: #335230;
      }
    </style>
  </defs>
  <!-- Generator: Adobe Illustrator 28.6.0, SVG Export Plug-In . SVG Version: 1.2.0 Build 709)  -->
  <g>
    <g id="Layer_1">
      <g>
        <g>
          <path class="cls-1" d="M205.4,3.3H70.8c0,.4,0,.8,0,1.2,0,14.9,0,29.9,0,44.8,0,1.7,0,3.3,0,5,.8,1,1.4,2.1,1.6,3.1.2,1.5.5,3,.7,4.5.4,0,.7.2,1,.3.8.3,1.5.6,2.2.9,0-17.2,0-34.4,0-51.6,0-.8,0-1.7.2-2.5h122.9v63.7c.3,0,.6.2.9.4,1-2.1,2.7-3.6,4.7-4.4,0-21.2,0-42.3,0-63.5,0-.6-.2-1.3.2-1.9Z"/>
          <path class="cls-1" d="M199.6,183.5v-10.9h5.6v16.5H71v-28.2h5.4c.3.4.2,1,.2,1.5,0,6.4,0,12.9,0,19.3,0,1.5.4,1.8,1.8,1.8,36.4,0,72.8,0,109.2,0,3.9,0,7.9,0,12,0Z"/>
        </g>
        <g>
          <g>
            <polygon class="cls-2" points="234.6 156.8 233.7 156.8 212.6 156.8 212.6 161.9 214.3 161.9 214.3 158.5 233.7 158.5 233.7 164.3 211.7 164.3 211.7 166.1 233.7 166.1 233.7 171.9 213.5 171.9 213.5 167.6 211.7 167.6 211.7 173.7 235.5 173.7 235.5 156.8 234.6 156.8"/>
            <path class="cls-3" d="M235.6,173.8h-24.1v-6.3h2v4.3h20v-5.5h-22v-2h22v-5.5h-19.1v3.4h-2v-5.5h23.2v17.2ZM211.9,173.5h23.5v-16.6h-22.6v4.9h1.5v-3.4h19.7v6.1h-22v1.5h22v6.1h-20.6v-4.3h-1.5v5.8Z"/>
          </g>
          <g>
            <circle class="cls-2" cx="223.6" cy="161.4" r="1.1"/>
            <path class="cls-3" d="M223.6,162.7c-.7,0-1.3-.6-1.3-1.3s.6-1.3,1.3-1.3,1.3.6,1.3,1.3c0,.7-.6,1.3-1.3,1.3ZM223.6,160.4c-.6,0-1,.4-1,1s.4,1,1,1,1-.4,1-1-.4-1-1-1Z"/>
          </g>
          <g>
            <circle class="cls-2" cx="223.6" cy="168.5" r="1.1"/>
            <path class="cls-3" d="M223.6,169.8c-.7,0-1.3-.6-1.3-1.3s.6-1.3,1.3-1.3,1.3.6,1.3,1.3-.6,1.3-1.3,1.3ZM223.6,167.5c-.6,0-1,.4-1,1s.4,1,1,1,1-.4,1-1-.4-1-1-1Z"/>
          </g>
          <g>
            <polygon class="cls-2" points="227.3 154.9 224 154.9 224 146.2 223.2 146.2 223.2 154.9 219.9 154.9 219.9 156.2 227.3 156.2 227.3 154.9"/>
            <path class="cls-3" d="M227.5,156.4h-7.7v-1.6h3.3v-8.7h1v8.7h3.3v1.6h0ZM220,156.1h7.1v-1h-3.3v-8.7h-.4v8.7h-3.3v1h0Z"/>
          </g>
        </g>
        <g>
          <path class="cls-3" d="M254.9,162.6l1.9,2.4c-10,8-22,12.2-34.8,12.2-30.9,0-56-25.1-56-56s25.1-56,56-56,24.8,4.2,34.8,12.2l-1.9,2.4c-9.5-7.5-20.8-11.5-32.9-11.5-29.2,0-53,23.8-53,53s23.8,53,53,53c12.1,0,23.5-4,32.9-11.5ZM217.4,124.6c4.4,2.8,7.9,7.4,9.7,13.2l-2.9.9c-2.5-8.4-9.3-14-16.8-14s-1.4,0-2.1.2v13.4s0,0,0,0h-3.1v-15.9h0s0-17.4,0-17.4h3.6c3.8,0,7.7,0,10.3,0,6.2,0,11,4.4,11,9.9,0,5-4.2,9.2-9.6,9.8ZM223.9,114.8c0-3.7-3.6-6.7-7.9-6.8-2.6,0-6.5,0-10.2,0h-.5v13.6s10.8,0,10.8,0h0c4.4,0,7.9-3,7.9-6.8Z"/>
          <path class="cls-3" d="M235.6,138.2h-3.1c0-3.8.2-9.2.2-13.1,0-2.7,0-4.6,0-5.1.4-9,5.6-15.4,12.6-15.4s12.6,6.9,12.6,15.4v18.1h-3.1v-8.4h-19.3c0,3,0,6-.2,8.5ZM235.8,126.7h19.2v-6.6c0-6.8-4.3-12.4-9.6-12.4s-9.2,5.1-9.6,12.4c0,.4,0,2.4,0,5,0,.5,0,1,0,1.6Z"/>
          <path class="cls-3" d="M266.6,138.2h-3.1v-33.4h25.2v3.1h-22.2v12.1h22v3.1h-22v15.1h0Z"/>
          <path class="cls-3" d="M305.3,107.9h-11.1v-3.1h11.1s3.1,0,3.1,0h0s11.1,0,11.1,0v3.1h-11.1v30.3s-3.1,0-3.1,0v-30.3Z"/>
          <path class="cls-3" d="M320.1,121.5c0-9.2,7.7-16.7,17.1-16.7s5.4.6,7.9,1.8l-1.4,2.7c-2-1-4.2-1.5-6.5-1.5-7.8,0-14.1,6.1-14.1,13.6s6.3,13.6,14.1,13.6,4.5-.5,6.5-1.5l1.4,2.7c-2.4,1.2-5.1,1.8-7.9,1.8-9.5,0-17.1-7.5-17.1-16.7Z"/>
          <path class="cls-3" d="M359.2,138.2h0s-3.1,0-3.1,0h0s-5.6,0-5.6,0v-3.1h5.6v-27.2h-5.6v-3.1h14.2v3.1h-5.6v27.2h5.6v3.1h-5.6Z"/>
          <path class="cls-3" d="M381.3,107.9h-11.1v-3.1h11.1s3.1,0,3.1,0h0s11.1,0,11.1,0v3.1h-11.1v30.3s-3.1,0-3.1,0v-30.3Z"/>
          <path class="cls-3" d="M413.3,122l-12.3-16.3,2.4-1.9,11.4,15.1,11.4-15.1,2.4,1.9-12.3,16.3v16.2h-3.1v-16.2h0Z"/>
        </g>
        <g>
          <g>
            <path class="cls-1" d="M240.2,150.8v-2.1h1.8v3.8h-2.6c-2,0-3-1.3-3-3.9s1-3.9,3-3.9h2.6v1.7h-1.8c-1.3,0-2,.6-2,1.8v.8c0,1.2.6,1.8,1.9,1.8h.1Z"/>
            <path class="cls-3" d="M242.2,152.6h-2.8c-2.1,0-3.2-1.4-3.2-4.1s1.1-4.1,3.2-4.1h2.8v2h-2c-1.3,0-1.8.5-1.8,1.6v.8c0,1.1.5,1.6,1.7,1.6v-2.1h2.1v4.1h0ZM239.4,144.9c-1.9,0-2.8,1.2-2.8,3.7s.9,3.7,2.8,3.7h2.4v-3.4h-1.4v2.1h-.3c-1.4,0-2.1-.7-2.1-2v-.8c0-1.3.8-2,2.2-2h1.7v-1.3h-2.4Z"/>
          </g>
          <g>
            <path class="cls-1" d="M249.4,146.6c0,0,0-.1,0-.2,0,0-.1,0-.2,0s0,0,0,0h0s-2.2,0-2.2,0v6.2h-1.7v-7.8s4,0,4,0c.6,0,1.1.2,1.4.5.4.3.5.8.5,1.4,0,.6-.2,1.1-.5,1.5l-.7.8c-.1.2-.1.3,0,.5l1.7,3h-2.1s-1.3-2.5-1.3-2.5c-.3-.6-.3-1.1,0-1.5l.8-1.1c.4-.5.5-.7.5-.8Z"/>
            <path class="cls-3" d="M251.7,152.7h-2.6s-1.3-2.6-1.3-2.6c-.3-.7-.3-1.3,0-1.7l.8-1.1c.4-.5.5-.7.5-.7,0,0,0,0,0,0,0,0,0,0,0,0h-.2s0,0,0,0h-1.9v6.2h-2.1v-8.2s4.1,0,4.1,0c.6,0,1.1.2,1.5.6.4.4.6.9.6,1.6,0,.7-.2,1.2-.6,1.6l-.7.8c0,0,0,.2,0,.4l1.8,3.3ZM245.3,152.3h1.4v-6.2h2.6c0,0,.1,0,.2.1,0,0,.1.2.1.3s0,.2-.6.9l-.8,1.1c-.3.3-.3.7,0,1.3l1.2,2.4h1.7s-1.5-2.7-1.5-2.7c-.1-.3,0-.5,0-.7l.7-.8c.3-.3.5-.8.5-1.4,0-.6-.1-1-.5-1.3-.3-.3-.8-.5-1.3-.5h-3.8v7.4Z"/>
          </g>
          <g>
            <path class="cls-1" d="M259.1,152.5h-3.6c-1,0-1.5-.5-1.5-1.6v-4.8c0-.9.5-1.4,1.5-1.4h3.6v1.7h-3.2v1.4h2.7v1.7h-2.7v1.4h3.2v1.7Z"/>
            <path class="cls-3" d="M259.2,152.6h-3.8c-1.1,0-1.7-.6-1.7-1.8v-4.8c0-1,.6-1.6,1.7-1.6h3.8v2h-3.2v1h2.7v2h-2.7v1h3.2v2ZM255.5,144.9c-.9,0-1.3.4-1.3,1.2v4.8c0,1,.4,1.4,1.3,1.4h3.4v-1.3h-3.2v-1.7h2.7v-1.3h-2.7v-1.8h3.2v-1.3h-3.4Z"/>
          </g>
          <g>
            <path class="cls-1" d="M264.4,151.3l-.4,1.2h-1.8l2.8-7.3c0-.1.2-.3.3-.4.1,0,.3-.1.4-.1s.3,0,.5.1c.1,0,.2.2.3.4l2.8,7.4h-1.8l-.5-1.2h-2.6ZM266.3,149.6l-.6-1.7-.6,1.7h1.3Z"/>
            <path class="cls-3" d="M269.5,152.6h-2.2l-.5-1.2h-2.3l-.4,1.2h-2.2l2.8-7.6c0-.2.2-.3.4-.4.3-.2.7-.2,1.1,0,.2.1.3.3.4.4l2.9,7.6ZM267.5,152.3h1.4l-2.7-7.1c0-.1-.1-.2-.2-.3-.2-.1-.5-.1-.7,0-.1,0-.2.2-.2.3l-2.7,7.1h1.4l.4-1.2h2.8l.5,1.2ZM266.6,149.8h-1.8l.9-2.3.9,2.3ZM265.3,149.4h.8l-.4-1-.4,1Z"/>
          </g>
          <g>
            <path class="cls-1" d="M272.5,152.5v-6.1h-1.8v-1.7h5.3v1.7h-1.7v6.1h-1.8Z"/>
            <path class="cls-3" d="M274.5,152.7h-2.2v-6.1h-1.8v-2h5.7v2h-1.7v6.1h0ZM272.6,152.3h1.5v-6.1h1.7v-1.3h-5v1.3h1.8v6.1h0Z"/>
          </g>
          <g>
            <path class="cls-1" d="M283.8,150.8h3.1c.4,0,.5-.2.5-.5s-.1-.6-.4-.6l-2-.4c-.3,0-.6-.2-.8-.3-.3-.2-.6-.5-.7-.8-.2-.3-.3-.7-.3-1.1,0-.4,0-.7.2-1,.2-.3.4-.6.7-.8.3-.2.6-.3,1-.4.1,0,.3,0,.5,0h3.1v1.7h-3c-.4,0-.5.2-.5.5s.1.6.4.6l2.5.6c.8.3,1.2.9,1.2,1.8,0,.4,0,.8-.2,1.2-.2.4-.4.7-.7.9-.3.2-.6.3-.9.4-.1,0-.3,0-.5,0h-3.3v-1.7Z"/>
            <path class="cls-3" d="M287.2,152.6h-3.5v-2.1h3.3c.3,0,.4,0,.4-.3,0-.4-.2-.4-.2-.5l-2-.4c-.3,0-.6-.2-.8-.4-.3-.2-.6-.5-.8-.9-.2-.4-.3-.8-.3-1.2,0-.4,0-.8.3-1.1.2-.4.4-.6.7-.9.3-.2.7-.3,1.1-.4.2,0,.3,0,.5,0h3.3v2.1h-3.2c-.3,0-.4.1-.4.3,0,.3.1.4.2.5l2.5.6c.9.3,1.3,1,1.4,2,0,.4,0,.9-.2,1.3-.2.4-.4.8-.8,1-.3.2-.6.3-1,.4-.1,0-.3,0-.5,0ZM284,152.3h3.1c.2,0,.3,0,.4,0,.3,0,.6-.2.9-.4.3-.2.5-.5.7-.8.1-.4.2-.7.2-1.1,0-.8-.4-1.4-1.1-1.7l-2.5-.6c-.2,0-.5-.3-.5-.8s.3-.7.7-.7h2.8v-1.3h-2.9c-.1,0-.3,0-.4,0-.4,0-.7.2-1,.4-.3.2-.5.5-.6.8-.1.3-.2.6-.2,1,0,.4,0,.7.3,1,.2.3.4.6.7.8.2.1.4.2.7.3l2,.4c.2,0,.5.3.5.8s-.3.7-.7.7h-3v1.3h0Z"/>
          </g>
          <g>
            <path class="cls-1" d="M293.8,152.5v-6.1h-1.8v-1.7h5.3v1.7h-1.7v6.1h-1.8Z"/>
            <path class="cls-3" d="M295.8,152.7h-2.2v-6.1h-1.8v-2h5.7v2h-1.7v6.1h0ZM294,152.3h1.5v-6.1h1.7v-1.3h-5v1.3h1.8v6.1h0Z"/>
          </g>
          <g>
            <path class="cls-1" d="M304.1,144.6c1.9,0,2.8,1.3,2.8,3.9s-.9,3.9-2.8,3.9h-1.2c-1.9,0-2.8-1.3-2.8-3.9s.9-3.9,2.8-3.9h1.2ZM303.6,146.3h-.2c-1,0-1.5.6-1.5,1.8v.9c0,1.2.5,1.8,1.6,1.8h0c1,0,1.6-.6,1.6-1.8v-.9c0-1.2-.5-1.8-1.5-1.8Z"/>
            <path class="cls-3" d="M304.1,152.7h-1.2c-2,0-3-1.4-3-4.1s1-4.1,3-4.1h1.2c2,0,3,1.4,3,4.1s-1,4.1-3,4.1ZM302.9,144.8c-1.8,0-2.6,1.2-2.6,3.8s.9,3.8,2.6,3.8h1.2c1.8,0,2.6-1.2,2.6-3.8s-.9-3.8-2.6-3.8h-1.2ZM303.6,151h0c-.8,0-1.7-.3-1.7-2v-.9c0-1.6.9-2,1.7-2h.2c.8,0,1.7.4,1.7,2v.9c0,1.6-.9,2-1.7,2ZM303.4,146.5c-.9,0-1.3.5-1.3,1.6v.9c0,1.1.4,1.6,1.4,1.6h0c.9,0,1.4-.5,1.4-1.6v-.9c0-1.1-.4-1.6-1.3-1.6h-.2Z"/>
          </g>
          <g>
            <path class="cls-1" d="M314.3,146.6c0,0,0-.1,0-.2,0,0-.1,0-.2,0s0,0,0,0h0s-2.2,0-2.2,0v6.2h-1.7v-7.8s4,0,4,0c.6,0,1.1.2,1.4.5.4.3.5.8.5,1.4,0,.6-.2,1.1-.5,1.5l-.7.8c-.1.2-.1.3,0,.5l1.7,3h-2.1s-1.3-2.5-1.3-2.5c-.3-.6-.3-1.1,0-1.5l.8-1.1c.4-.5.5-.7.5-.8Z"/>
            <path class="cls-3" d="M316.7,152.7h-2.6s-1.3-2.6-1.3-2.6c-.3-.7-.3-1.3,0-1.7l.8-1.1c.4-.5.5-.7.5-.7,0,0,0,0,0,0,0,0,0,0,0,0h-.2s0,0,0,0h-1.9v6.2h-2.1v-8.2s4.1,0,4.1,0c.6,0,1.1.2,1.5.6.4.4.6.9.6,1.6,0,.7-.2,1.2-.6,1.6l-.7.8c0,0,0,.2,0,.4l1.8,3.3ZM310.2,152.3h1.4v-6.2h2.6c0,0,.1,0,.2.1,0,0,.1.2.1.3s0,.2-.6.9l-.8,1.1c-.3.3-.3.7,0,1.3l1.2,2.4h1.7s-1.5-2.7-1.5-2.7c-.1-.3,0-.5,0-.7l.7-.8c.3-.3.5-.8.5-1.4,0-.6-.1-1-.5-1.3-.3-.3-.8-.5-1.3-.5h-3.8v7.4Z"/>
          </g>
          <g>
            <path class="cls-1" d="M324,152.5h-3.6c-1,0-1.5-.5-1.5-1.6v-4.8c0-.9.5-1.4,1.5-1.4h3.6v1.7h-3.2v1.4h2.7v1.7h-2.7v1.4h3.2v1.7h0Z"/>
            <path class="cls-3" d="M324.2,152.6h-3.8c-1.1,0-1.7-.6-1.7-1.8v-4.8c0-1,.6-1.6,1.7-1.6h3.8v2h-3.2v1h2.7v2h-2.7v1h3.2v2h0ZM320.4,144.9c-.9,0-1.3.4-1.3,1.2v4.8c0,1,.4,1.4,1.3,1.4h3.4v-1.3h-3.2v-1.7h2.7v-1.3h-2.7v-1.8h3.2v-1.3h-3.4Z"/>
          </g>
          <g>
            <path class="cls-1" d="M335.2,150.8v-2.1h1.8v3.8h-2.6c-2,0-3-1.3-3-3.9s1-3.9,3-3.9h2.6v1.7h-1.8c-1.3,0-2,.6-2,1.8v.8c0,1.2.6,1.8,1.9,1.8h.1Z"/>
            <path class="cls-3" d="M337.2,152.6h-2.8c-2.1,0-3.2-1.4-3.2-4.1s1.1-4.1,3.2-4.1h2.8v2h-2c-1.3,0-1.8.5-1.8,1.6v.8c0,1.1.5,1.6,1.7,1.6v-2.1h2.1v4.1h0ZM334.4,144.9c-1.9,0-2.8,1.2-2.8,3.7s.9,3.7,2.8,3.7h2.4v-3.4h-1.4v2.1h-.3c-1.4,0-2.1-.7-2.1-2v-.8c0-1.3.8-2,2.2-2h1.7v-1.3h-2.4Z"/>
          </g>
          <g>
            <path class="cls-1" d="M344.4,146.6c0,0,0-.1,0-.2,0,0-.1,0-.2,0s0,0,0,0h0s-2.2,0-2.2,0v6.2h-1.7v-7.8s4,0,4,0c.6,0,1.1.2,1.4.5.4.3.5.8.5,1.4,0,.6-.2,1.1-.5,1.5l-.7.8c-.1.2-.1.3,0,.5l1.7,3h-2.1s-1.3-2.5-1.3-2.5c-.3-.6-.3-1.1,0-1.5l.8-1.1c.4-.5.5-.7.5-.8Z"/>
            <path class="cls-3" d="M346.8,152.7h-2.6s-1.3-2.6-1.3-2.6c-.3-.7-.3-1.3,0-1.7l.8-1.1c.4-.5.5-.7.5-.7,0,0,0,0,0,0,0,0,0,0,0,0h-.2s0,0,0,0h-1.9v6.2h-2.1v-8.2s4.1,0,4.1,0c.6,0,1.1.2,1.5.6.4.4.6.9.6,1.6,0,.7-.2,1.2-.6,1.6l-.7.8c0,0,0,.2,0,.4l1.8,3.3ZM340.3,152.3h1.4v-6.2h2.6c0,0,.1,0,.2.1,0,0,.1.2.1.3s0,.2-.6.9l-.8,1.1c-.3.3-.3.7,0,1.3l1.2,2.4h1.7s-1.5-2.7-1.5-2.7c-.1-.3,0-.5,0-.7l.7-.8c.3-.3.5-.8.5-1.4,0-.6-.1-1-.5-1.3-.3-.3-.8-.5-1.3-.5h-3.8v7.4Z"/>
          </g>
          <g>
            <path class="cls-1" d="M354.1,152.5h-3.6c-1,0-1.5-.5-1.5-1.6v-4.8c0-.9.5-1.4,1.5-1.4h3.6v1.7h-3.2v1.4h2.7v1.7h-2.7v1.4h3.2v1.7Z"/>
            <path class="cls-3" d="M354.3,152.6h-3.8c-1.1,0-1.7-.6-1.7-1.8v-4.8c0-1,.6-1.6,1.7-1.6h3.8v2h-3.2v1h2.7v2h-2.7v1h3.2v2ZM350.5,144.9c-.9,0-1.3.4-1.3,1.2v4.8c0,1,.4,1.4,1.3,1.4h3.4v-1.3h-3.2v-1.7h2.7v-1.3h-2.7v-1.8h3.2v-1.3h-3.4Z"/>
          </g>
          <g>
            <path class="cls-1" d="M359.4,151.3l-.4,1.2h-1.8l2.8-7.3c0-.1.2-.3.3-.4.1,0,.3-.1.4-.1s.3,0,.5.1c.1,0,.2.2.3.4l2.8,7.4h-1.8l-.5-1.2h-2.6ZM361.4,149.6l-.6-1.7-.6,1.7h1.3Z"/>
            <path class="cls-3" d="M364.5,152.6h-2.2l-.5-1.2h-2.3l-.4,1.2h-2.2l2.8-7.6c0-.2.2-.3.4-.4.3-.2.7-.2,1.1,0,.2.1.3.3.4.4l2.9,7.6ZM362.6,152.3h1.4l-2.7-7.1c0-.1-.1-.2-.2-.3-.2-.1-.5-.1-.7,0-.1,0-.2.2-.2.3l-2.7,7.1h1.4l.4-1.2h2.8l.5,1.2ZM361.6,149.8h-1.8l.9-2.3.9,2.3ZM360.3,149.4h.8l-.4-1-.4,1Z"/>
          </g>
          <g>
            <path class="cls-1" d="M367.5,152.5v-6.1h-1.8v-1.7h5.3v1.7h-1.7v6.1h-1.8Z"/>
            <path class="cls-3" d="M369.5,152.7h-2.2v-6.1h-1.8v-2h5.7v2h-1.7v6.1h0ZM367.7,152.3h1.5v-6.1h1.7v-1.3h-5v1.3h1.8v6.1h0Z"/>
          </g>
          <g>
            <path class="cls-1" d="M381.4,144.7h2.4v1.7h-1.7c-1.3,0-2,.6-2,1.8v.8c0,1.2.7,1.8,2,1.8h1.7v1.7h-2.4c-2,0-3-1.3-3-3.9,0-2.6,1-3.9,3-3.9Z"/>
            <path class="cls-3" d="M384.1,152.6h-2.6c-2.1,0-3.2-1.4-3.2-4.1s1.1-4.1,3.2-4.1h2.6v2h-1.8c-.7,0-1.1.1-1.4.4-.3.3-.4.7-.4,1.2v.8c0,1.1.6,1.6,1.8,1.6h1.8v2h0ZM381.4,144.9c-1.9,0-2.8,1.2-2.8,3.7s.9,3.7,2.8,3.7h2.3v-1.3h-1.5c-1.8,0-2.2-1.1-2.2-2v-.8c0-.6.2-1.1.5-1.5.4-.4.9-.5,1.7-.5h1.5v-1.3h-2.3Z"/>
          </g>
          <g>
            <path class="cls-1" d="M388.8,149.5v3h-1.8v-7.8h1.8v3.1h2.2v-3.1h1.8v7.8h-1.8v-3h-2.2Z"/>
            <path class="cls-3" d="M392.9,152.7h-2.1v-3h-1.8v3h-2.1v-8.2h2.1v3.1h1.8v-3.1h2.1v8.2ZM391.1,152.3h1.4v-7.5h-1.4v3.1h-2.5v-3.1h-1.4v7.5h1.4v-3h2.5v3Z"/>
          </g>
          <g>
            <path class="cls-1" d="M399.8,144.6c1.9,0,2.8,1.3,2.8,3.9s-.9,3.9-2.8,3.9h-1.2c-1.9,0-2.8-1.3-2.8-3.9s.9-3.9,2.8-3.9h1.2ZM399.3,146.3h-.2c-1,0-1.5.6-1.5,1.8v.9c0,1.2.5,1.8,1.6,1.8h0c1,0,1.6-.6,1.6-1.8v-.9c0-1.2-.5-1.8-1.5-1.8Z"/>
            <path class="cls-3" d="M399.8,152.7h-1.2c-2,0-3-1.4-3-4.1s1-4.1,3-4.1h1.2c2,0,3,1.4,3,4.1s-1,4.1-3,4.1ZM398.6,144.8c-1.8,0-2.6,1.2-2.6,3.8s.9,3.8,2.6,3.8h1.2c1.8,0,2.6-1.2,2.6-3.8s-.9-3.8-2.6-3.8h-1.2ZM399.3,151h0c-.8,0-1.7-.3-1.7-2v-.9c0-1.6.9-2,1.7-2h.2c.8,0,1.7.4,1.7,2v.9c0,1.6-.9,2-1.7,2ZM399.1,146.5c-.9,0-1.3.5-1.3,1.6v.9c0,1.1.4,1.6,1.4,1.6h0c.9,0,1.4-.5,1.4-1.6v-.9c0-1.1-.4-1.6-1.3-1.6h-.2Z"/>
          </g>
          <g>
            <path class="cls-1" d="M405.8,152.5v-7.8h1.8v7.8h-1.8Z"/>
            <path class="cls-3" d="M407.7,152.7h-2.1v-8.2h2.1v8.2ZM405.9,152.3h1.4v-7.5h-1.4v7.5Z"/>
          </g>
          <g>
            <path class="cls-1" d="M413.7,144.7h2.4v1.7h-1.7c-1.3,0-2,.6-2,1.8v.8c0,1.2.7,1.8,2,1.8h1.7v1.7h-2.4c-2,0-3-1.3-3-3.9,0-2.6,1-3.9,3-3.9Z"/>
            <path class="cls-3" d="M416.3,152.6h-2.6c-2.1,0-3.2-1.4-3.2-4.1s1.1-4.1,3.2-4.1h2.6v2h-1.8c-.6,0-1.1.1-1.4.4-.3.3-.4.7-.4,1.2v.8c0,1.1.6,1.6,1.8,1.6h1.8v2h0ZM413.7,144.9c-1.9,0-2.8,1.2-2.8,3.7s.9,3.7,2.8,3.7h2.3v-1.3h-1.5c-1.8,0-2.2-1.1-2.2-2v-.8c0-.6.2-1.1.5-1.5.4-.4.9-.5,1.7-.5h1.5v-1.3h-2.3Z"/>
          </g>
          <g>
            <path class="cls-1" d="M424.3,152.5h-3.6c-1,0-1.5-.5-1.5-1.6v-4.8c0-.9.5-1.4,1.5-1.4h3.6v1.7h-3.2v1.4h2.7v1.7h-2.7v1.4h3.2v1.7Z"/>
            <path class="cls-3" d="M424.4,152.6h-3.8c-1.1,0-1.7-.6-1.7-1.8v-4.8c0-1,.6-1.6,1.7-1.6h3.8v2h-3.2v1h2.7v2h-2.7v1h3.2v2ZM420.7,144.9c-.9,0-1.3.4-1.3,1.2v4.8c0,1,.4,1.4,1.3,1.4h3.4v-1.3h-3.2v-1.7h2.7v-1.3h-2.7v-1.8h3.2v-1.3h-3.4Z"/>
          </g>
        </g>
        <path class="cls-3" d="M70.8,57.5c.2,1.5.4,3.1.6,4.6,0,.5.4,1.1-.5,1.2h-2.5c-.3-2.1-.6-4.2-1-6.2-3.2-14.1-18-22.3-31.1-17-8.8,3.6-13.6,10.6-15,20-.6,3.9-.2,7.9-.3,11.8,0,30.3,0,60.6,0,90.9v1.9h8.8c2.4,0,4.8,0,7.2,0,1.1,0,2.1.4,2,1.6,0,1.2-.8,1.7-2.1,1.7-10.6,0-21.2,0-31.9,0-1.1,0-2-.1-2.7-.9v-1.5c.7-.7,1.5-1,2.5-1,4.2,0,8.4,0,12.9,0v-2.5c0-32.9,0-65.8,0-98.7,0-11.7,6.6-21.9,16.8-26.2,11.3-4.7,28.4-1,34.5,15.1.6,1.7,1.1,3.4,1.7,5.2Z"/>
        <path class="cls-3" d="M150,159.7c-.8,2.2-1.5,4.4-2.3,6.6-.5,1.5-1.3,1.6-2.4.5-1.7-1.7-3.4-3.5-5-5.2-1.3-1.4-2.9-2-4.7-2-14,0-28,0-42,0-9.2,0-18.5,0-27.7,0-2.6,0-4.8.7-6.5,2.7-1.4,1.6-2.9,3.1-4.4,4.6-1.1,1.1-1.8.9-2.4-.5-.6-1.7-1.3-3.3-1.7-5-.3-1.3-1-1.7-2.2-1.9-4.8-.9-6.3-2.6-6.5-7.4-.2-4.3.1-8.7.4-13,.2-4.1,0-8.1-.4-12.2,0-.6,0-1.3,0-1.9.2-2.7,1.6-4.2,4.3-4.2,4.5-.1,8.9-.1,13.4,0,1.3,0,2-.3,2.4-1.6,1.1-3.6,1.8-4.2,5.6-4.2,21.5,0,43.1,0,64.6,0,3.9,0,4.6.6,5.7,4.3.3,1.1.7,1.4,1.9,1.4,3.8-.1,7.7-.2,11.5,0,4,.3,6.7,3.1,6.7,7.2,0,5.3,0,10.5,0,15.8,0,3.1,0,6.3,0,9.4,0,1.5-.4,2.6-1.4,3.7-1.8,2-4,3.2-6.8,2.9ZM52.9,149.3h0c2.7-3.8,4.3-7.9,3.5-12.7-.6-3.9-2.6-7.3-4.5-10.6-1.1-1.9-2.8-2.7-4.8-2.1-2,.5-3.1,2-3.1,4.2,0,5.2-.1,10.4-.2,15.6,0,2.9,0,5.7.2,8.6.2,3.5,2,5.1,5.4,5.4,2.1.2,4.2.1,6.3-.1,12.1-1.3,24.3-2.3,36.5-2.5,15.8-.3,31.7.3,47.4,2,3.7.4,7.3.9,11,.7,3.6-.2,5.3-1.9,5.7-5.5,0-.4,0-.9,0-1.3,0-7.8,0-15.5,0-23.3,0-1.3-.3-2.4-.8-3.6-.2-.4-.4-.8-.9-.9-1.2-.4-4.2.1-5,1.2-2.3,3-4.3,6.2-5.4,9.9-1.1,3.9-.5,7.6,1.2,11.2.6,1.3,1.4,2.5,1.8,4.1-9.9-6.2-19.9-9.5-33.1-9.3-9.6.2-19.2.2-28.8,0-11.4-.2-21.9,2.7-31.5,8.9-.3.2-.6.7-1.1.3ZM130,139.5c.2-.5.4-.9.6-1.3,1.8-4.5,3.6-8.9,5.3-13.4.3-.9.6-1.7.7-2.7.3-2.8-.9-4.4-3.6-5-.9-.2-1.9-.2-2.8-.2-20,0-39.9,0-59.9,0-.6,0-1.3,0-1.9,0-4.1.3-5.8,2.6-4.5,6.5.9,2.9,2.2,5.7,3.3,8.5,1,2.5,1.9,5,2.8,7.6,20-2.6,40-2.6,59.9,0ZM52.5,122.5c1.9,3.7,3.9,7.1,5,10.8,1.2,3.8,1.3,7.7,0,11.8,2.6-1.3,4.9-2.4,7.1-3.7,2.6-1.5,3.1-3,2.3-5.9-.8-2.7-2.2-5.1-3.2-7.7-1.7-3.9-4.5-5.8-8.8-5.2-.6,0-1.3,0-2.3,0ZM142.7,144.7c-2.8-8.8,2-15.7,5.4-23.2-2,.5-3.8.9-5.6,1.3-2.2.4-3.6,1.6-4.7,3.6-1.8,3.5-2.9,7.3-4.1,11-.5,1.7,0,3.1,1.5,3.9,2.3,1.3,4.7,2.2,7.5,3.3ZM58,159.9h-4.6v5.1c1.6-1.8,3-3.3,4.6-5.1ZM142.4,159.8c1.5,1.8,2.9,3.4,4.5,5.2v-5.2h-4.5Z"/>
        <path class="cls-3" d="M70.8,65.1c1.1,0,2.3,0,3.4,0,.9,0,1.6.2,2.2,1,1.9,5,4.1,9.8,6.2,14.9h-6.1c-1.9,0-3.8,0-5.6,0h-13.1c0-.9.4-1.5.7-2.2,1.7-4.1,3.5-8.1,5.1-12.2.5-1.1,1.1-1.6,2.3-1.5,1.6,0,3.2,0,4.9,0Z"/>
        <path class="cls-1" d="M73.3,84.3c-.7.8-1.5,1.6-2.4,2.1v27.4h5.6v-29.7c-1.1.1-2.1.2-3.2.2Z"/>
        <path class="cls-3" d="M70.9,84.1c.5,0,.9,0,1.5.1-.2.9-.9,1.2-1.5,1.5-1.3,0-2.5,0-3.3-1.6,1.2,0,2.3,0,3.3,0Z"/>
        <path class="cls-1" d="M52.9,149.3c0,0,.2.1.3.2,0,0,0,0,0,0,0,0,0-.2-.1-.3,0,0,0,0,0,0Z"/>
        <polygon class="cls-3" points="218.9 146.5 228.3 146.5 226.8 139.2 220.7 139.2 218.9 146.5"/>
      </g>
    </g>
  </g>
</svg>